<svg width="1200" height="1200" viewBox="0 0 1200 1200" fill="none" xmlns="http://www.w3.org/2000/svg">
<rect width="1200" height="1200" fill="white"/>
<path d="M268.661 992.904C102.503 924.661 87.6672 722.897 176.68 488.495C281.106 213.509 672.505 -46.7737 942.195 203.653C1136.13 383.738 1066.81 770.371 942.195 951.365C689.898 1317.8 434.819 1061.15 268.661 992.904Z" fill="#F0C7B1"/>
<path d="M689.262 799.564C819.835 930.138 1090.4 725.894 1090.4 1200H109.6C109.6 723.696 388.768 926.945 519.28 796.434C519.28 748.364 518.492 671.24 518.492 623.173H689.209L689.262 799.564Z" fill="#E19267"/>
<path d="M689.262 799.564C819.835 930.138 1090.4 725.894 1090.4 1200H109.6C109.6 723.696 388.768 926.945 519.28 796.434C519.28 748.364 518.492 671.24 518.492 623.173H689.209L689.262 799.564Z" fill="url(#paint0_linear)" style="mix-blend-mode:multiply"/>
<path d="M798.645 461.486C798.645 461.486 841.631 446.388 861.617 463.59C881.602 480.792 872.184 564.989 843.227 580.574C814.271 596.159 798.645 580.574 798.645 580.574V461.486Z" fill="#D8855B"/>
<path d="M860.861 518.475C854.719 550.109 841.795 572.603 827.847 572.603C813.898 572.603 809.42 563.774 809.42 516.4C809.419 470.873 824.263 467.034 838.212 467.034C852.16 467.034 864.316 481.393 860.861 518.475Z" fill="#F7D7C5" style="mix-blend-mode:multiply"/>
<path d="M409.661 461.486C409.661 461.486 366.674 446.388 346.689 463.59C326.703 480.792 336.122 564.989 365.078 580.574C394.035 596.159 409.661 580.574 409.661 580.574V461.486Z" fill="#E19267"/>
<path d="M347.445 518.475C353.587 550.109 366.511 572.603 380.46 572.603C394.408 572.603 398.886 563.774 398.886 516.4C398.887 470.873 384.043 467.034 370.095 467.034C356.146 467.034 343.99 481.393 347.445 518.475Z" fill="#F7D7C5" style="mix-blend-mode:multiply"/>
<path d="M818.667 404.358C818.667 285.067 721.963 188.363 602.672 188.363C483.382 188.363 386.678 285.067 386.678 404.358V573.475C386.678 671.347 460.528 754.36 558.124 761.701C577.443 763.155 593.476 764.093 602.672 764.093C611.868 764.093 627.902 763.155 647.221 761.701C744.816 754.36 818.667 671.346 818.667 573.475V404.358Z" fill="#E19267"/>
<path d="M578.042 455.399C578.042 455.399 583.293 525.894 550.175 562.146C522.234 592.732 582.474 604.446 601.988 601.613C621.502 604.446 681.742 592.732 653.8 562.146C620.683 525.894 625.934 455.399 625.934 455.399C622.488 447.39 611.38 438.975 601.988 439.853C592.596 438.975 581.487 447.39 578.042 455.399Z" fill="#D48559"/>
<path d="M662.372 399.121C662.372 399.121 692.562 393.926 704.257 393.926C715.952 393.926 755.067 400.461 764.063 404.523C773.059 408.586 795.81 424.612 778.682 422.001C761.553 419.391 726.479 414.057 706.544 414.057C686.61 414.057 662.372 422.001 662.372 422.001C662.372 422.001 657.198 418.715 657.198 410.393C657.198 402.071 662.372 399.121 662.372 399.121Z" fill="#110F0B"/>
<path d="M542.663 399.121C542.663 399.121 512.474 393.926 500.779 393.926C489.084 393.926 449.968 400.461 440.972 404.523C431.976 408.586 409.226 424.612 426.354 422.001C443.482 419.391 478.557 414.057 498.491 414.057C518.426 414.057 542.663 422.001 542.663 422.001C542.663 422.001 547.837 418.715 547.837 410.393C547.837 402.071 542.663 399.121 542.663 399.121Z" fill="#110F0B"/>
<path d="M524.041 661.499C524.041 685.03 568.666 686.474 603.006 686.474C637.346 686.474 681.972 685.03 681.972 661.499C681.972 637.969 667.353 641.374 658.807 641.374C650.262 641.374 621.813 649.959 603.006 649.959C584.199 649.959 555.751 641.374 547.205 641.374C538.66 641.374 524.041 637.969 524.041 661.499Z" fill="#5E0202"/>
<path d="M668.067 643.439C681.49 643.439 681.498 651.891 678.882 655.139C678.882 655.139 633.592 661.745 605.066 660.982C576.54 660.219 524.98 655.185 524.98 655.185C524.077 651.847 526.522 645.072 533.017 644.855C541.135 644.584 651.288 643.439 668.067 643.439Z" fill="white"/>
<path d="M523.039 655.088C522.631 646.106 527.08 628.753 548.148 631.203C563.627 633.003 577.412 636.707 587.64 639.455C594.239 641.228 599.357 642.603 602.493 642.812C605.629 642.603 610.747 641.228 617.346 639.455C627.574 636.707 641.36 633.003 656.838 631.203C677.906 628.753 682.356 646.106 681.947 655.088C680.518 655.497 676.926 654.843 673.986 648.964C670.312 641.615 639.077 646.514 618.867 650.189C609.61 651.872 595.376 651.872 586.119 650.189C565.909 646.514 534.675 641.615 531 648.964C528.061 654.843 524.468 655.497 523.039 655.088Z" fill="#DA764C"/>
<path d="M602.665 686.142C619 685.542 679.856 681.556 679.115 655.387C678.845 647.404 681.686 650.516 682.227 654.44C682.296 655.221 682.373 656.009 682.451 656.804C684.19 674.579 670.323 700.852 602.666 699.634C537.178 700.31 521.141 674.579 522.879 656.804C522.957 656.009 523.034 655.221 523.103 654.44C523.644 650.516 526.486 647.404 526.215 655.387C525.475 681.556 586.331 685.542 602.665 686.142Z" fill="#DA764C"/>
<path d="M464.481 458.981C449.729 470.454 467.368 485.162 477.242 492.225C487.116 499.287 528.989 499.578 532.952 490.408C532.952 490.408 551.725 480.113 534.163 460.13C516.602 440.147 479.234 447.508 464.481 458.981Z" fill="white"/>
<circle cx="500.263" cy="467.7" r="17.2582" fill="#272727"/>
<path d="M459.719 454.286C463.363 458.605 483.032 452.092 502.23 454.012C521.428 455.932 540.627 469.37 545.015 464.433C549.403 459.497 515.943 445.235 507.441 443.864C498.939 442.493 479.025 444.039 470.141 446.058C461.257 448.077 456.075 449.967 459.719 454.286Z" fill="#DA884C"/>
<path d="M455.605 491.861C452.314 496.249 485.225 504.752 503.601 504.203C521.977 503.654 536.198 500.063 540.901 495.426C545.605 490.79 515.241 492.057 503.25 492.371C491.26 492.684 458.896 487.473 455.605 491.861Z" fill="#DA884C"/>
<path d="M740.557 458.981C755.31 470.454 737.671 485.162 727.797 492.225C717.923 499.287 676.05 499.578 672.086 490.408C672.086 490.408 653.314 480.113 670.875 460.13C688.437 440.147 725.804 447.508 740.557 458.981Z" fill="white"/>
<circle r="17.2582" transform="matrix(-1 0 0 1 704.775 467.7)" fill="#272727"/>
<path d="M745.32 454.286C741.676 458.605 722.007 452.092 702.809 454.012C683.61 455.932 664.412 469.37 660.023 464.433C655.635 459.497 689.096 445.235 697.598 443.864C706.1 442.493 726.013 444.039 734.897 446.058C743.782 448.077 748.963 449.967 745.32 454.286Z" fill="#DA884C"/>
<path d="M749.433 491.86C752.724 496.248 719.813 504.75 701.438 504.202C683.062 503.653 668.841 500.062 664.137 495.425C659.434 490.788 689.797 492.056 701.788 492.369C713.779 492.683 746.142 487.472 749.433 491.86Z" fill="#DA884C"/>
<path d="M818.667 404.358C818.667 285.067 721.963 188.363 602.672 188.363C483.382 188.363 386.678 285.067 386.678 404.358V573.475C386.678 671.347 460.528 754.36 558.124 761.701C577.443 763.155 593.476 764.093 602.672 764.093C611.868 764.093 627.902 763.155 647.221 761.701C744.816 754.36 818.667 671.346 818.667 573.475V404.358Z" fill="url(#paint1_linear)" style="mix-blend-mode:multiply"/>
<path d="M361.153 257.542C351.929 180.675 516.892 97.6602 607.124 97.6602C719.349 97.6602 767.009 197.584 833.114 197.584C916.129 308.273 830.04 403.587 808.517 494.289C791.606 474.304 825.428 391.288 808.517 385.139C791.606 378.99 714.741 309.81 679.383 269.839C658.352 301.723 590.812 330.303 540.521 349.218C516.197 358.367 571.339 294.588 522.311 327.506C478.949 356.621 426.246 383.811 414.962 385.139C388.827 388.213 422.649 449.707 398.051 494.289C376.526 395.901 370.377 334.408 361.153 257.542Z" fill="#3A291D"/>
<mask id="mask0" mask-type="alpha" maskUnits="userSpaceOnUse" x="109" y="840" width="982" height="360">
<path d="M769.89 843.155C735.018 898.444 673.4 935.173 603.202 935.173C532.023 935.173 469.664 897.409 435.067 840.823C410.029 847.007 383.48 850.008 356.773 853.028C234.844 866.812 109.6 880.971 109.6 1200H1090.4C1090.4 882.785 969.278 869.245 850.004 855.912C822.711 852.861 795.515 849.82 769.89 843.155Z" fill="#5180C8"/>
</mask>
<g mask="url(#mask0)">
<path d="M769.89 843.155C735.018 898.444 673.4 935.173 603.202 935.173C532.023 935.173 469.664 897.409 435.067 840.823C410.029 847.007 383.48 850.008 356.773 853.028C234.844 866.812 109.6 880.971 109.6 1200H1090.4C1090.4 882.785 969.278 869.245 850.004 855.912C822.711 852.861 795.515 849.82 769.89 843.155Z" fill="#5180C8"/>
<rect x="112.445" y="1052.29" width="980.802" height="33.8362" fill="#4F4F4F"/>
<rect x="94.9053" y="1086.13" width="998.343" height="92.9771" fill="#D1D5DC"/>
</g>
<path d="M769.89 843.155C735.018 898.444 673.4 935.173 603.202 935.173C532.023 935.173 469.664 897.409 435.067 840.823C410.029 847.007 383.48 850.008 356.773 853.028C234.844 866.812 109.6 880.971 109.6 1200H1090.4C1090.4 882.785 969.278 869.245 850.004 855.912C822.711 852.861 795.515 849.82 769.89 843.155Z" fill="url(#paint2_linear)" style="mix-blend-mode:multiply"/>
<defs>
<linearGradient id="paint0_linear" x1="742.729" y1="797.278" x2="403.747" y2="911.587" gradientUnits="userSpaceOnUse">
<stop stop-color="#E0BFAD"/>
<stop offset="1" stop-color="#E19267" stop-opacity="0"/>
</linearGradient>
<linearGradient id="paint1_linear" x1="527.156" y1="555.925" x2="788.324" y2="556.798" gradientUnits="userSpaceOnUse">
<stop stop-color="#E19267" stop-opacity="0"/>
<stop offset="1" stop-color="#E4C6B6"/>
</linearGradient>
<linearGradient id="paint2_linear" x1="1016.41" y1="985.673" x2="600" y2="1200" gradientUnits="userSpaceOnUse">
<stop stop-color="#B0C0D7"/>
<stop offset="1" stop-color="#5180C8" stop-opacity="0"/>
</linearGradient>
</defs>
</svg>
