<svg width="1200" height="1200" viewBox="0 0 1200 1200" fill="none" xmlns="http://www.w3.org/2000/svg">
<rect width="1200" height="1200" fill="white"/>
<path d="M268.661 992.904C102.503 924.661 87.6672 722.897 176.68 488.495C281.106 213.509 672.505 -46.7737 942.195 203.653C1136.13 383.738 1066.81 770.371 942.195 951.365C689.898 1317.8 434.819 1061.15 268.661 992.904Z" fill="#E0AC9F"/>
<path d="M395.056 141.307C395.038 146.614 551.552 106.968 551.552 106.968C551.552 106.968 580.064 106.274 577.533 93.1118C575.002 79.9494 550.975 95.4212 550.975 95.4212C550.975 95.4212 395.074 136 395.056 141.307Z" fill="#C34B4B"/>
<path d="M527.612 57.7917C582.293 34.9168 685.09 46.2001 711.282 108.811C737.474 171.422 721.821 253.256 667.14 276.13C612.458 299.005 514.934 272.894 479.322 214.81C443.71 156.726 476.26 79.2737 527.612 57.7917Z" fill="#2F2725"/>
<path d="M527.612 57.7917C582.293 34.9168 685.09 46.2001 711.282 108.811C737.474 171.422 721.821 253.256 667.14 276.13C612.458 299.005 514.934 272.894 479.322 214.81C443.71 156.726 476.26 79.2737 527.612 57.7917Z" fill="url(#paint0_linear)" style="mix-blend-mode:multiply"/>
<path d="M621.939 83.6815C622.252 89.7106 718.872 76.5558 718.872 76.5558C718.872 76.5558 746.606 71.8401 744.931 58.5417C743.255 45.2433 715.481 52.0209 715.481 52.0209C715.481 52.0209 621.626 77.6524 621.939 83.6815Z" fill="#C34B4B"/>
<path d="M461.003 165.918C444.362 123.087 734.587 108.814 727.45 155.202" stroke="#BFC067" stroke-width="12.9247" stroke-linecap="round"/>
<path d="M900.865 519.696C900.865 723.529 939.93 888.769 604.471 888.769C187.833 888.769 307.398 723.529 307.398 519.696C307.398 315.862 361.105 150.623 604.471 150.623C856.556 150.623 900.865 315.862 900.865 519.696Z" fill="#2F2725"/>
<path d="M901.588 577.675C901.231 558.787 900.865 539.422 900.865 519.696C900.865 476.695 898.893 435.412 893.415 397.035C877.995 372.334 855.306 351.689 822.239 338.944C700.419 291.993 610.958 271.689 584.944 281.841C587.847 288.257 590.051 294.564 592.238 300.821C599.133 320.553 605.86 339.803 633.799 360.516C651.38 373.55 687.206 384.122 720.317 393.893C756.514 404.574 789.465 414.298 791.784 425.233C796.225 446.171 782.901 639.687 774.653 656.818C769.47 667.582 730.468 694.63 699.99 715.766C681.965 728.267 666.921 738.699 663.62 742.472C657.324 749.667 590.48 731.685 545.07 719.47C526.407 714.45 511.364 710.403 505.634 709.479C485.966 706.307 355.263 845.258 427.594 871.271C432.805 873.146 438.821 875.096 445.533 877.074C487.02 884.708 539.157 888.769 604.471 888.769C907.466 888.769 904.919 753.964 901.588 577.675Z" fill="url(#paint1_linear)" style="mix-blend-mode:multiply"/>
<path d="M686.295 812.873C691.447 982.704 1074.1 812.873 1074.1 1200H125.897C125.897 812.873 521.962 973.734 521.962 809.846C521.962 763.374 521.201 688.813 521.201 642.344H686.244L686.295 812.873Z" fill="#9C4630"/>
<path d="M686.295 812.873C691.447 982.704 1074.1 812.873 1074.1 1200H125.897C125.897 812.873 521.962 973.734 521.962 809.846C521.962 763.374 521.201 688.813 521.201 642.344H686.244L686.295 812.873Z" fill="url(#paint2_linear)" style="mix-blend-mode:multiply"/>
<path d="M759.266 549.582C745.974 510.123 752.426 438.954 785.366 425.326C818.307 411.699 855.786 432.639 869.078 472.098C882.37 511.557 866.442 554.593 833.501 568.22C800.56 581.848 772.558 589.041 759.266 549.582Z" fill="#9C4630"/>
<path d="M759.266 549.582C745.974 510.123 752.426 438.954 785.366 425.326C818.307 411.699 855.786 432.639 869.078 472.098C882.37 511.557 866.442 554.593 833.501 568.22C800.56 581.848 772.558 589.041 759.266 549.582Z" fill="#7F2C1C"/>
<path d="M859.05 506.784C863.41 476.809 833.969 443.077 811.898 439.064C797.852 478.023 777.285 562.062 801.363 560.457C831.461 558.451 854.046 541.188 859.05 506.784Z" fill="#D9BDB6" style="mix-blend-mode:multiply"/>
<path d="M445.201 549.582C458.493 510.123 452.041 438.954 419.1 425.326C386.16 411.699 348.68 432.639 335.389 472.098C322.097 511.557 338.025 554.593 370.966 568.22C403.907 581.848 431.909 589.041 445.201 549.582Z" fill="#9C4630"/>
<path d="M344.527 506.784C340.167 476.809 369.608 443.077 391.679 439.064C405.725 478.023 426.292 562.062 402.214 560.457C372.116 558.451 349.531 541.188 344.527 506.784Z" fill="#D9BDB6" style="mix-blend-mode:multiply"/>
<path d="M387.971 372.405C386.807 297.572 447.509 237.042 522.352 237.042H684.883C758.634 237.042 818.873 295.891 818.968 369.643C819.123 489.399 788.462 650.558 771.544 675.225C744.136 715.189 675.688 774.785 602.234 774.785C528.78 774.785 462.847 709.444 439.604 675.225C425.305 654.174 389.849 493.186 387.971 372.405Z" fill="#9C4630"/>
<path d="M602.234 446.897C588.873 446.897 578.042 457.728 578.042 471.089V525.521C578.042 528.47 578.569 531.296 579.535 533.909L575.98 532.853C557.683 527.42 539.312 541.129 539.312 560.215C539.312 573.774 548.842 585.478 562.206 587.764C575.471 590.033 591.671 592.442 602.671 592.85C613.774 593.261 629.943 590.789 643.052 588.285C656.108 585.791 665.156 574.176 665.156 560.885C665.156 541.495 646.455 527.596 627.889 533.186L624.861 534.097C625.872 531.432 626.425 528.541 626.425 525.521V471.089C626.425 457.728 615.594 446.897 602.234 446.897Z" fill="url(#paint3_linear)"/>
<path d="M493.072 474.321C458.658 469.027 442.307 443.535 446.249 442.429C468.898 436.075 482.209 435.15 498.043 436.137C517.835 437.37 549.152 460.508 545.295 461.11C526.646 464.019 526.372 479.445 493.072 474.321Z" fill="white"/>
<circle cx="503.203" cy="451.164" r="17.6927" transform="rotate(3.56574 503.203 451.164)" fill="#272727"/>
<path d="M504.542 437.895C522.033 441.166 543.006 462.23 545.628 461.991C548.251 461.752 545.106 444.144 529.353 432.806C512.552 420.714 478.415 419.09 446.12 439.115C443.67 440.634 434.556 437.272 434.01 439.667C433.464 442.062 444.314 445.801 447.079 446.08C465.168 447.904 483.694 434.378 504.542 437.895Z" fill="#712E1D"/>
<path d="M709.094 474.321C743.509 469.027 759.86 443.535 755.917 442.429C733.269 436.075 719.957 435.15 704.123 436.137C684.331 437.37 653.014 460.508 656.871 461.11C675.52 464.019 675.794 479.445 709.094 474.321Z" fill="white"/>
<circle cx="702.803" cy="447.933" r="17.6927" transform="rotate(3.56574 702.803 447.933)" fill="#272727"/>
<path d="M697.624 437.895C680.133 441.166 659.16 462.23 656.538 461.991C653.915 461.752 657.06 444.144 672.813 432.806C689.614 420.714 723.751 419.09 756.046 439.115C758.496 440.634 767.61 437.272 768.156 439.667C768.703 442.062 757.852 445.801 755.087 446.08C736.998 447.904 718.472 434.378 697.624 437.895Z" fill="#712E1D"/>
<path d="M686.244 645.413C684.96 639.634 653.178 630.517 641.621 627.435C626.94 623.52 616.564 635.782 603.722 635.782C590.88 635.781 580.505 623.52 565.823 627.435C554.267 630.517 522.485 639.634 521.201 645.413C523.247 664.514 553.924 680.685 603.612 680.241C653.301 679.798 684.198 664.514 686.244 645.413Z" fill="#AD5454"/>
<path d="M514.815 646.785C541.141 635.427 576.283 653.098 601.704 653.098C629.389 653.098 659.976 634.114 689.651 646.589" stroke="#92361F" stroke-width="2.74063" stroke-linecap="round"/>
<path d="M653.558 387.207C653.558 387.207 680.21 382.621 690.534 382.621C700.858 382.621 735.39 388.39 743.332 391.976C751.273 395.563 771.358 409.711 756.237 407.406C741.116 405.101 710.152 400.392 692.553 400.392C674.955 400.392 653.558 407.406 653.558 407.406C653.558 407.406 648.99 404.505 648.99 397.158C648.99 389.811 653.558 387.207 653.558 387.207Z" fill="#110F0B"/>
<path d="M547.878 387.207C547.878 387.207 521.226 382.621 510.902 382.621C500.578 382.621 466.046 388.39 458.104 391.976C450.163 395.563 430.078 409.711 445.199 407.406C460.32 405.101 491.284 400.392 508.883 400.392C526.481 400.392 547.878 407.406 547.878 407.406C547.878 407.406 552.446 404.505 552.446 397.158C552.446 389.811 547.878 387.207 547.878 387.207Z" fill="#110F0B"/>
<path d="M387.971 372.405C386.807 297.572 447.509 237.042 522.352 237.042H684.883C758.634 237.042 818.873 295.891 818.968 369.643C819.123 489.399 788.462 650.558 771.544 675.225C744.136 715.189 675.688 774.785 602.234 774.785C528.78 774.785 462.847 709.444 439.604 675.225C425.305 654.174 389.849 493.186 387.971 372.405Z" fill="url(#paint4_linear)" style="mix-blend-mode:multiply"/>
<path d="M648.934 362.395C656.493 366.093 794.148 384.228 800.904 427.525C807.806 471.762 792.323 541.334 800.904 548.599C878.558 565.299 937.008 491.953 814.61 281.371C778.7 240.064 705.081 192.719 617.5 192.719C614.676 192.719 611.869 192.773 609.079 192.88C606.288 192.773 603.481 192.719 600.657 192.719C513.076 192.719 439.457 240.064 403.547 281.371C370.197 319.733 386.042 506.774 403.547 491.953C412.128 484.687 407.858 439.149 414.76 394.912C421.515 351.615 428.076 309.565 435.636 305.866C585.647 232.473 583.302 330.285 648.934 362.395Z" fill="#2F2725"/>
<path d="M648.934 362.395C656.493 366.093 794.148 384.228 800.904 427.525C807.806 471.762 792.323 541.334 800.904 548.599C878.558 565.299 937.008 491.953 814.61 281.371C778.7 240.064 705.081 192.719 617.5 192.719C614.676 192.719 611.869 192.773 609.079 192.88C606.288 192.773 603.481 192.719 600.657 192.719C513.076 192.719 439.457 240.064 403.547 281.371C370.197 319.733 386.042 506.774 403.547 491.953C412.128 484.687 407.858 439.149 414.76 394.912C421.515 351.615 428.076 309.565 435.636 305.866C585.647 232.473 583.302 330.285 648.934 362.395Z" fill="url(#paint5_linear)" style="mix-blend-mode:multiply"/>
<path d="M125.897 1200H1074.1C1074.1 981.201 951.87 940.314 844.642 915.463C806.334 976.682 712.239 1019.96 602.234 1019.96C490.328 1019.96 394.886 975.173 357.889 912.273C248.959 938.685 125.897 984.209 125.897 1200Z" fill="#EFB68D"/>
<path d="M125.897 1200H1074.1C1074.1 981.201 951.87 940.314 844.642 915.463C806.334 976.682 712.239 1019.96 602.234 1019.96C490.328 1019.96 394.886 975.173 357.889 912.273C248.959 938.685 125.897 984.209 125.897 1200Z" fill="url(#paint6_linear)" style="mix-blend-mode:multiply"/>
<defs>
<linearGradient id="paint0_linear" x1="570.555" y1="196.265" x2="552.079" y2="53.6583" gradientUnits="userSpaceOnUse">
<stop offset="0.0373027" stop-color="#2F2725"/>
<stop offset="1" stop-color="#2F2725" stop-opacity="0"/>
</linearGradient>
<linearGradient id="paint1_linear" x1="665.156" y1="279.285" x2="902.259" y2="1007.91" gradientUnits="userSpaceOnUse">
<stop offset="0.230471" stop-color="#9D5847"/>
<stop offset="1" stop-color="#C4B2AE" stop-opacity="0"/>
</linearGradient>
<linearGradient id="paint2_linear" x1="646.807" y1="766.019" x2="600" y2="1200" gradientUnits="userSpaceOnUse">
<stop stop-color="#DBB5AC"/>
<stop offset="1" stop-color="#9C4630" stop-opacity="0"/>
</linearGradient>
<linearGradient id="paint3_linear" x1="602.234" y1="573.231" x2="602.234" y2="461.143" gradientUnits="userSpaceOnUse">
<stop stop-color="#8E3018"/>
<stop offset="1" stop-color="#9C4630"/>
</linearGradient>
<linearGradient id="paint4_linear" x1="859.273" y1="485.817" x2="435.76" y2="433.01" gradientUnits="userSpaceOnUse">
<stop stop-color="#BB7766"/>
<stop offset="0.6719" stop-color="#9C4630" stop-opacity="0"/>
</linearGradient>
<linearGradient id="paint5_linear" x1="1103.67" y1="266.681" x2="492.955" y2="261.895" gradientUnits="userSpaceOnUse">
<stop offset="0.435624" stop-color="#A3A2A2"/>
<stop offset="0.899533" stop-color="#2F2725" stop-opacity="0"/>
</linearGradient>
<linearGradient id="paint6_linear" x1="982.727" y1="1019.71" x2="311.922" y2="1143.74" gradientUnits="userSpaceOnUse">
<stop stop-color="#F0C09D"/>
<stop offset="1" stop-color="#EFB68D" stop-opacity="0"/>
</linearGradient>
</defs>
</svg>
