<svg width="1200" height="1200" viewBox="0 0 1200 1200" fill="none" xmlns="http://www.w3.org/2000/svg">
<rect width="1200" height="1200" fill="white"/>
<path d="M268.661 992.904C102.503 924.661 87.6672 722.897 176.68 488.495C281.106 213.509 672.505 -46.7737 942.195 203.653C1136.13 383.738 1066.81 770.371 942.195 951.365C689.898 1317.8 434.819 1061.15 268.661 992.904Z" fill="#FCE4BE"/>
<path d="M896.678 838.446C896.678 838.446 866.787 531.57 912.619 288.461C935.16 168.899 787.079 69.2644 747.225 61.2936C712.747 54.398 632.036 84.787 610.89 93.1104C589.744 84.787 509.032 54.398 474.554 61.2936C434.7 69.2644 286.619 168.899 309.16 288.461C354.992 531.57 325.101 838.446 325.101 838.446C443.5 810.82 483.617 834.175 601.484 834.175C726.012 834.175 773.421 809.686 896.678 838.446Z" fill="#1F1E1E"/>
<path fill-rule="evenodd" clip-rule="evenodd" d="M894.356 426.782C876.772 634.082 896.677 838.446 896.677 838.446C815.603 819.529 767.344 823.65 708.37 828.687C684.471 830.728 658.812 832.919 628.496 833.788C597.679 830.019 556.586 824.279 516.012 818.612C449.86 809.372 385.087 800.325 368.478 800.325C335.036 800.325 368.478 532.788 384.659 526.315C409.471 558.679 467.078 637.861 499.01 695.683C538.924 767.961 695.347 682.738 753.601 633.114C801.171 592.592 789.754 463.59 782.203 378.276C780.507 359.114 779.006 342.156 778.413 328.899C776.255 280.696 710.762 270.878 662.252 263.605C638.023 259.973 618.031 256.976 612.281 250.148C595.021 229.651 738.498 187.579 790.279 211.312C836.421 232.461 882.563 377.816 894.356 426.782Z" fill="url(#paint0_linear)" style="mix-blend-mode:multiply"/>
<path d="M694.322 769.829C700.046 958.543 1125.25 769.829 1125.25 1200H71.6162C71.6162 769.829 511.717 948.576 511.717 766.466C511.717 714.827 510.872 631.975 510.872 580.34H694.266L694.322 769.829Z" fill="#F8C571"/>
<path d="M694.322 769.829C699.282 933.355 1019.22 813.481 1104.53 1058.46C1130.59 1133.29 1061.01 1200 981.774 1200H215.091C135.852 1200 66.3297 1133.25 92.8353 1058.58C180.735 810.937 511.717 924.395 511.717 766.466C511.717 740.3 511.5 706.121 511.286 672.049C510.967 621.4 551.932 580.34 602.582 580.34C653.222 580.34 694.278 621.384 694.293 672.023L694.322 769.829Z" fill="url(#paint1_linear)" style="mix-blend-mode:multiply"/>
<path d="M414.444 476.402C414.444 514.724 436.824 558.459 398.502 558.459C360.18 558.459 332.743 514.724 332.743 476.402C332.743 438.08 344.238 416.977 382.561 416.977C420.883 416.977 414.444 438.08 414.444 476.402Z" fill="#F8C571"/>
<path d="M793.316 476.402C793.316 514.724 770.935 558.459 809.258 558.459C847.58 558.459 875.017 514.724 875.017 476.402C875.017 438.08 863.521 416.977 825.199 416.977C786.877 416.977 793.316 438.08 793.316 476.402Z" fill="#F8C571"/>
<path d="M864.175 471.837C866.872 431.383 838.285 432.462 811.855 432.462C807.18 469.86 801.175 544.655 814.552 544.655C831.273 544.655 861.478 512.292 864.175 471.837Z" fill="#EEDBBF" style="mix-blend-mode:multiply"/>
<path d="M341.559 471.837C338.862 431.383 367.45 432.462 393.88 432.462C398.555 469.86 404.56 544.655 391.183 544.655C374.462 544.655 344.256 512.292 341.559 471.837Z" fill="#EEDBBF" style="mix-blend-mode:multiply"/>
<path d="M830.914 492.875C830.926 500.747 830.364 508.562 828.47 516.204C811.768 583.586 731.99 767.225 601.757 767.225C463.09 767.225 376.582 544.665 376.582 504.656C376.582 370.53 370.604 167.423 601.757 167.423C824.456 167.423 830.751 385.104 830.914 492.875Z" fill="#F8C571"/>
<path d="M516.985 634.169C518.452 627.254 546.887 617.036 557.684 617.036C568.482 617.036 598.383 625.451 598.383 625.451C598.383 625.451 630.776 617.877 639.082 617.877C647.388 617.877 675.315 627.254 679.781 635.852C683.268 643.257 619.716 669.161 598.383 669.161C574.837 669.161 515.162 644.739 516.985 634.169Z" fill="#C98276"/>
<path d="M514.674 635.411C543.292 620.532 569.072 644.929 596.707 644.929C626.802 644.929 649.247 619.068 681.507 635.411" stroke="#C16B5C" stroke-width="3.59043" stroke-linecap="round"/>
<path d="M660.472 352.329C660.472 352.329 690.087 347.233 701.559 347.233C713.031 347.233 751.403 353.643 760.227 357.629C769.052 361.614 791.369 377.335 774.567 374.774C757.765 372.213 723.358 366.98 703.803 366.98C684.248 366.98 660.472 374.774 660.472 374.774C660.472 374.774 655.396 371.55 655.396 363.386C655.396 355.223 660.472 352.329 660.472 352.329Z" fill="#110F0B"/>
<path d="M543.043 352.329C543.043 352.329 513.428 347.233 501.955 347.233C490.483 347.233 452.112 353.643 443.287 357.629C434.463 361.614 412.145 377.335 428.948 374.774C445.75 372.213 480.156 366.98 499.711 366.98C519.266 366.98 543.043 374.774 543.043 374.774C543.043 374.774 548.118 371.55 548.118 363.386C548.118 355.223 543.043 352.329 543.043 352.329Z" fill="#110F0B"/>
<path d="M701.975 454.652C674.019 454.372 679.052 438.438 683.245 430.051C693.029 414.396 767.714 418.825 767.714 432.803C767.714 446.78 729.93 454.931 701.975 454.652Z" fill="white"/>
<path d="M713.591 418.761C739.496 418.761 780.341 426.672 780.341 426.672C785.533 436.561 726.694 424.2 716.063 426.672C707.559 428.65 688.704 432.193 684.913 435.078C679.178 439.231 670.08 441.505 667.113 439.775C664.147 438.044 687.686 418.761 713.591 418.761Z" fill="#272727"/>
<circle r="15.9416" transform="matrix(-1 0 0 1 714.293 437.116)" fill="#272727"/>
<path d="M507.273 454.652C535.229 454.372 530.196 438.438 526.003 430.051C516.218 414.396 441.534 418.825 441.534 432.803C441.534 446.78 479.317 454.931 507.273 454.652Z" fill="white"/>
<path d="M495.656 418.761C469.751 418.761 428.906 426.672 428.906 426.672C423.714 436.561 482.553 424.2 493.184 426.672C501.688 428.65 520.543 432.194 524.334 435.078C530.07 439.231 539.167 441.506 542.134 439.775C545.1 438.044 521.561 418.761 495.656 418.761Z" fill="#272727"/>
<circle cx="494.955" cy="437.116" r="15.9416" fill="#272727"/>
<path d="M597.26 384.825C575.732 383.633 580.189 440.385 580.009 451.995C579.45 488.117 578.879 524.954 559.718 523.033C530.06 520.061 534.061 552.063 538.912 557.168C543.763 562.274 574.855 565.097 598.876 565.097C622.897 565.097 647.802 563.941 655.607 557.168C663.413 550.395 664.459 520.061 634.801 523.033C615.64 524.954 615.07 488.117 614.51 451.995C614.33 440.385 618.787 383.633 597.26 384.825Z" fill="url(#paint2_linear)" style="mix-blend-mode:multiply"/>
<path d="M830.915 492.875C830.927 500.748 830.365 508.563 828.471 516.204C811.77 583.586 731.991 767.226 601.759 767.226C463.091 767.226 376.584 544.666 376.584 504.656C376.584 370.53 370.606 167.424 601.759 167.424C824.457 167.424 830.753 385.105 830.915 492.875Z" fill="url(#paint3_linear)" style="mix-blend-mode:multiply"/>
<path d="M759.487 242.173C710.547 211.075 636.115 254.129 606.211 254.129C573.68 254.129 498.047 212.163 448.914 242.173C421.14 259.137 404.412 323.777 394.479 387.635C383.235 459.919 389.672 531.202 380.696 531.202C371.72 531.202 365.391 406.404 375.655 347.252C395.439 233.235 462.379 139.845 592.532 139.845C732.463 139.845 809.221 218.108 828.753 347.252C836.813 400.546 835.784 531.202 824.115 531.202C812.446 531.202 825.224 460.095 815.58 387.635C807.303 325.448 791.105 262.263 759.487 242.173Z" fill="#1F1E1E"/>
<path d="M759.487 253.882C710.547 222.785 636.115 265.838 606.211 265.838C573.68 265.838 498.047 223.872 448.914 253.882C421.14 270.846 404.412 335.486 394.479 399.344C383.235 471.628 389.672 542.912 380.696 542.912C371.72 542.912 365.391 418.113 375.655 358.962C395.439 244.944 462.379 151.555 592.532 151.555C732.463 151.555 809.221 229.818 828.753 358.962C836.813 412.255 835.784 542.912 824.115 542.912C812.446 542.912 825.224 471.805 815.58 399.344C807.303 337.157 791.105 273.973 759.487 253.882Z" fill="#1F1E1E"/>
<path d="M74.752 1198.62H1128.38C1128.38 955.498 992.56 910.064 873.41 882.451C873.41 1093.77 654.929 1093.77 604.05 1093.77C553.171 1093.77 332.538 1093.77 332.538 878.906C211.496 908.254 74.752 958.84 74.752 1198.62Z" fill="#EF8A52"/>
<path d="M74.752 1198.62H1128.38C1128.38 955.498 992.56 910.064 873.41 882.451C873.41 1093.77 654.929 1093.77 604.05 1093.77C553.171 1093.77 332.538 1093.77 332.538 878.906C211.496 908.254 74.752 958.84 74.752 1198.62Z" fill="url(#paint4_linear)" style="mix-blend-mode:multiply"/>
<path d="M789.087 859.814C789.087 965.11 703.728 1050.47 598.433 1050.47C493.137 1050.47 407.778 965.11 407.778 859.814" stroke="white" stroke-width="7.18086" stroke-linecap="round"/>
<circle cx="789.087" cy="878.359" r="11.8107" fill="#FDF1E8"/>
<circle cx="780.884" cy="919.517" r="11.8107" fill="#FDF1E8"/>
<circle cx="760.097" cy="960.676" r="11.8107" fill="#FDF1E8"/>
<circle cx="729.71" cy="997.848" r="11.8107" fill="#FDF1E8"/>
<circle cx="691.824" cy="1026.26" r="11.8107" fill="#FDF1E8"/>
<circle cx="652.586" cy="1043.85" r="11.8107" fill="#FDF1E8"/>
<ellipse cx="603.45" cy="1050.47" rx="11.8107" ry="20.3987" fill="#F99F5D"/>
<circle cx="554.317" cy="1043.85" r="11.8107" fill="#FDF1E8"/>
<circle cx="511.975" cy="1029.42" r="11.8107" fill="#FDF1E8"/>
<circle cx="474.99" cy="1003.26" r="11.8107" fill="#FDF1E8"/>
<circle cx="440.262" cy="966.952" r="11.8107" fill="#FDF1E8"/>
<circle cx="419.589" cy="925.569" r="11.8107" fill="#FDF1E8"/>
<circle cx="407.778" cy="879.994" r="11.8107" fill="#FDF1E8"/>
<defs>
<linearGradient id="paint0_linear" x1="572.942" y1="441.316" x2="789.621" y2="866.99" gradientUnits="userSpaceOnUse">
<stop offset="0.429531" stop-color="#1F1E1E"/>
<stop offset="0.716882" stop-color="#281E1E" stop-opacity="0.552029"/>
<stop offset="1" stop-color="#1F1E1E" stop-opacity="0"/>
</linearGradient>
<linearGradient id="paint1_linear" x1="1125.25" y1="653.203" x2="82.3081" y2="943.604" gradientUnits="userSpaceOnUse">
<stop offset="0.124081" stop-color="#D7BC90"/>
<stop offset="0.758856" stop-color="#F8C571" stop-opacity="0"/>
</linearGradient>
<linearGradient id="paint2_linear" x1="597.26" y1="540.815" x2="597.26" y2="402.399" gradientUnits="userSpaceOnUse">
<stop stop-color="#F8E0BA"/>
<stop offset="1" stop-color="#F8B967" stop-opacity="0"/>
</linearGradient>
<linearGradient id="paint3_linear" x1="1087.5" y1="467.325" x2="376.569" y2="481.879" gradientUnits="userSpaceOnUse">
<stop offset="0.0924568" stop-color="#D7BC90"/>
<stop offset="0.758856" stop-color="#F8C571" stop-opacity="0"/>
</linearGradient>
<linearGradient id="paint4_linear" x1="1142.6" y1="1019.78" x2="601.568" y2="1198.62" gradientUnits="userSpaceOnUse">
<stop stop-color="#F9D9C8"/>
<stop offset="1" stop-color="#EF8A52" stop-opacity="0"/>
</linearGradient>
</defs>
</svg>
