<svg width="1200" height="1200" viewBox="0 0 1200 1200" fill="none" xmlns="http://www.w3.org/2000/svg">
<rect width="1200" height="1200" fill="white"/>
<path d="M268.661 992.904C102.503 924.661 87.6672 722.897 176.68 488.495C281.106 213.509 672.505 -46.7737 942.195 203.653C1136.13 383.738 1066.81 770.371 942.195 951.365C689.898 1317.8 434.819 1061.15 268.661 992.904Z" fill="#DCB59A"/>
<path d="M681.416 826.999C800.511 946.094 1047.29 759.805 1047.29 1192.23H152.709C152.709 757.8 407.337 943.183 526.376 824.144C526.376 780.3 525.658 709.955 525.658 666.114H681.368L681.416 826.999Z" fill="#C17E4F"/>
<path d="M681.416 826.999C800.511 946.094 1047.29 759.805 1047.29 1192.23H152.709C152.709 757.8 407.337 943.183 526.376 824.144C526.376 780.3 525.658 709.955 525.658 666.114H681.368L681.416 826.999Z" fill="url(#paint0_linear)" style="mix-blend-mode:multiply"/>
<path fill-rule="evenodd" clip-rule="evenodd" d="M598.66 115.595C592.882 90.5872 570.473 71.9447 543.71 71.9447C515.486 71.9447 492.104 92.6776 487.964 119.744C480.807 116.456 472.843 114.623 464.45 114.623C433.303 114.623 408.054 139.873 408.054 171.019C408.054 179.86 410.088 188.226 413.714 195.674C397.498 199.865 384.111 211.089 377 225.897C370.162 222.951 362.624 221.319 354.705 221.319C323.559 221.319 298.309 246.568 298.309 277.715C298.309 294.987 306.074 310.446 318.303 320.791C305.808 336.038 298.309 355.538 298.309 376.79C298.309 391.809 302.054 405.953 308.662 418.339C291.055 434.499 280.019 457.703 280.019 483.485C280.019 520.611 302.904 552.392 335.336 565.49C333.062 573.327 331.842 581.611 331.842 590.181C331.842 639.006 371.423 678.586 420.247 678.586C440.852 678.586 459.81 671.537 474.842 659.72C517.966 688.948 569.998 706.022 626.018 706.022C682.534 706.022 734.992 688.644 778.339 658.939C788.681 670.968 804.01 678.586 821.119 678.586C852.265 678.586 877.515 653.337 877.515 622.19C877.515 610.251 873.805 599.179 867.476 590.063C896.908 588.168 920.193 563.696 920.193 533.785C920.193 530.096 919.838 526.49 919.162 522.998C934.474 512.914 944.581 495.57 944.581 475.864C944.581 447.135 923.098 423.423 895.32 419.915C895.303 419.619 895.284 419.323 895.266 419.028C923.07 415.544 944.581 391.82 944.581 363.072C944.581 331.925 919.331 306.675 888.184 306.675C888.06 306.675 887.935 306.676 887.811 306.676C892.887 298.211 895.805 288.304 895.805 277.715C895.805 250.163 876.048 227.225 849.927 222.298C848.089 219.513 846.01 216.9 843.72 214.49C845.863 208.53 847.03 202.105 847.03 195.407C847.03 164.26 821.781 139.011 790.634 139.011C775.943 139.011 762.565 144.628 752.528 153.831C742.492 144.628 729.113 139.011 714.423 139.011C701.693 139.011 689.949 143.228 680.511 150.341C674.084 126.262 652.122 108.526 626.018 108.526C616.09 108.526 606.762 111.091 598.66 115.595Z" fill="#2F2725"/>
<path fill-rule="evenodd" clip-rule="evenodd" d="M598.66 115.595C592.882 90.5872 570.473 71.9447 543.71 71.9447C515.486 71.9447 492.104 92.6776 487.964 119.744C480.807 116.456 472.843 114.623 464.45 114.623C433.303 114.623 408.054 139.873 408.054 171.019C408.054 179.86 410.088 188.226 413.714 195.674C397.498 199.865 384.111 211.089 377 225.897C370.162 222.951 362.624 221.319 354.705 221.319C323.559 221.319 298.309 246.568 298.309 277.715C298.309 294.987 306.074 310.446 318.303 320.791C305.808 336.038 298.309 355.538 298.309 376.79C298.309 391.809 302.054 405.953 308.662 418.339C291.055 434.499 280.019 457.703 280.019 483.485C280.019 520.611 302.904 552.392 335.336 565.49C333.062 573.327 331.842 581.611 331.842 590.181C331.842 639.006 371.423 678.586 420.247 678.586C440.852 678.586 459.81 671.537 474.842 659.72C517.966 688.948 569.998 706.022 626.018 706.022C682.534 706.022 734.992 688.644 778.339 658.939C788.681 670.968 804.01 678.586 821.119 678.586C852.265 678.586 877.515 653.337 877.515 622.19C877.515 610.251 873.805 599.179 867.476 590.063C896.908 588.168 920.193 563.696 920.193 533.785C920.193 530.096 919.838 526.49 919.162 522.998C934.474 512.914 944.581 495.57 944.581 475.864C944.581 447.135 923.098 423.423 895.32 419.915C895.303 419.619 895.284 419.323 895.266 419.028C923.07 415.544 944.581 391.82 944.581 363.072C944.581 331.925 919.331 306.675 888.184 306.675C888.06 306.675 887.935 306.676 887.811 306.676C892.887 298.211 895.805 288.304 895.805 277.715C895.805 250.163 876.048 227.225 849.927 222.298C848.089 219.513 846.01 216.9 843.72 214.49C845.863 208.53 847.03 202.105 847.03 195.407C847.03 164.26 821.781 139.011 790.634 139.011C775.943 139.011 762.565 144.628 752.528 153.831C742.492 144.628 729.113 139.011 714.423 139.011C701.693 139.011 689.949 143.228 680.511 150.341C674.084 126.262 652.122 108.526 626.018 108.526C616.09 108.526 606.762 111.091 598.66 115.595Z" fill="url(#paint1_linear)" style="mix-blend-mode:multiply"/>
<circle cx="805.876" cy="524.639" r="59.4448" fill="#C17E4F"/>
<circle cx="805.876" cy="524.639" r="59.4448" fill="url(#paint2_linear)" style="mix-blend-mode:multiply"/>
<path d="M853.906 524.726C853.906 553.403 823.569 571.007 808.708 571.007C793.847 571.007 780.652 546.735 780.652 524.639C780.652 502.543 793.563 479.297 808.424 479.297C823.285 479.297 853.906 490.087 853.906 524.726Z" fill="#E7D6CA" style="mix-blend-mode:multiply"/>
<circle cx="412.626" cy="524.639" r="59.4448" fill="#C17E4F"/>
<path d="M363.508 524.726C363.508 553.403 393.845 571.007 408.706 571.007C423.567 571.007 436.762 546.735 436.762 524.639C436.762 502.543 423.851 479.297 408.99 479.297C394.129 479.297 363.508 490.087 363.508 524.726Z" fill="#E7D6CA" style="mix-blend-mode:multiply"/>
<rect x="414.15" y="306.675" width="393.25" height="457.267" rx="109.744" fill="#C17E4F"/>
<path d="M757.789 475.047C759.374 494.793 739.824 502.472 721.331 505.215C707.065 505.763 694.912 502.472 692.535 482.452C690.157 462.431 707.858 449.541 723.973 449.815C740.089 450.089 756.204 455.3 757.789 475.047Z" fill="white"/>
<circle r="18.2597" transform="matrix(-1 0 0 1 722.854 473.689)" fill="#272727"/>
<path d="M766.383 492.656C765.912 489.963 763.22 488.265 760.587 489L732.149 496.943C729.479 497.689 726.72 498.067 723.948 498.067L692.849 498.067C690.638 498.067 688.855 499.878 688.89 502.089C688.917 503.824 690.066 505.351 691.753 505.754C716.408 511.644 748.982 502.941 763.558 497.655C765.603 496.913 766.757 494.8 766.383 492.656Z" fill="#C06F36"/>
<path d="M765.69 460.073C765.619 463.595 762.352 466.178 758.909 465.434L731.466 459.509C728.912 458.957 726.295 458.757 723.688 458.912L695.451 460.601C691.55 460.834 688.199 457.861 687.966 453.961C687.782 450.873 689.623 447.989 692.574 447.062C718.03 439.068 734.323 447.535 761.387 454.471C763.941 455.126 765.743 457.438 765.69 460.073Z" fill="#C06F36"/>
<path d="M706.061 663.547C704.633 657.119 669.282 646.978 656.427 643.55C640.096 639.195 628.555 652.835 614.271 652.834C599.986 652.833 588.446 639.195 572.115 643.55C559.26 646.978 523.909 657.119 522.48 663.547C524.757 684.793 600.647 686.4 614.271 686.4C627.895 686.4 703.785 684.793 706.061 663.547Z" fill="#DB8C53"/>
<path d="M515.377 665.073C544.659 652.44 583.748 672.095 612.025 672.095C642.819 672.095 676.841 650.98 709.85 664.856" stroke="#C06F36" stroke-width="3.04845" stroke-linecap="round"/>
<path fill-rule="evenodd" clip-rule="evenodd" d="M614.271 465.195C600.802 465.195 589.883 476.113 589.883 489.582V544.454C589.883 545.487 589.947 546.504 590.072 547.503H586.835C573.366 547.503 562.447 558.421 562.447 571.89C562.447 585.359 573.366 596.278 586.835 596.278H641.707C655.176 596.278 666.095 585.359 666.095 571.89C666.095 558.421 655.176 547.503 641.707 547.503H638.47C638.594 546.504 638.658 545.487 638.658 544.454V489.582C638.658 476.113 627.739 465.195 614.271 465.195Z" fill="url(#paint3_linear)" style="mix-blend-mode:multiply"/>
<path d="M680.892 428.613C675.954 428.613 671.868 424.389 674.291 420.086C676.578 416.025 680.49 412.291 685.791 409.213C694.652 404.068 706.67 401.177 719.202 401.177C731.734 401.177 743.752 404.068 752.614 409.213C757.915 412.291 761.826 416.025 764.113 420.086C766.536 424.389 762.45 428.613 757.512 428.613C752.574 428.613 748.458 424.229 745.119 420.591C743.767 419.119 742.039 417.756 739.969 416.555C734.462 413.357 726.991 411.56 719.202 411.56C711.413 411.56 703.943 413.357 698.435 416.555C696.366 417.756 694.637 419.119 693.285 420.591C689.946 424.229 685.83 428.613 680.892 428.613Z" fill="#2F2725"/>
<path d="M545.208 428.613C550.145 428.613 554.232 424.389 551.809 420.086C549.521 416.025 545.61 412.291 540.309 409.213C531.448 404.068 519.429 401.177 506.897 401.177C494.366 401.177 482.347 404.068 473.486 409.213C468.185 412.291 464.274 416.025 461.986 420.086C459.563 424.389 463.649 428.613 468.587 428.613C473.525 428.613 477.641 424.229 480.98 420.591C482.332 419.119 484.061 417.756 486.13 416.555C491.638 413.357 499.108 411.56 506.897 411.56C514.687 411.56 522.157 413.357 527.665 416.555C529.734 417.756 531.463 419.119 532.814 420.591C536.154 424.229 540.27 428.613 545.208 428.613Z" fill="#2F2725"/>
<path d="M470.753 475.047C469.168 494.793 488.719 502.472 507.211 505.215C521.478 505.763 533.63 502.472 536.008 482.452C538.386 462.431 520.685 449.541 504.569 449.815C488.454 450.089 472.339 455.3 470.753 475.047Z" fill="white"/>
<circle cx="505.688" cy="473.689" r="18.2597" fill="#272727"/>
<path d="M462.159 492.656C462.63 489.963 465.322 488.265 467.955 489L496.393 496.943C499.063 497.689 501.822 498.067 504.594 498.067L535.693 498.067C537.904 498.067 539.687 499.878 539.652 502.089C539.625 503.824 538.476 505.351 536.789 505.754C512.134 511.644 479.56 502.941 464.984 497.655C462.939 496.913 461.785 494.8 462.159 492.656Z" fill="#C06F36"/>
<path d="M462.853 460.073C462.924 463.595 466.191 466.178 469.634 465.434L497.077 459.509C499.631 458.957 502.248 458.757 504.855 458.912L533.092 460.601C536.993 460.834 540.344 457.861 540.577 453.961C540.761 450.873 538.92 447.989 535.969 447.062C510.513 439.068 494.22 447.535 467.156 454.471C464.602 455.126 462.8 457.438 462.853 460.073Z" fill="#C06F36"/>
<rect x="414.15" y="306.675" width="393.25" height="457.267" rx="109.744" fill="url(#paint4_linear)" style="mix-blend-mode:multiply"/>
<path fill-rule="evenodd" clip-rule="evenodd" d="M610.775 340.208C657.689 340.208 698.175 329.126 716.961 313.11C723.622 322.15 734.342 328.014 746.431 328.014C747.527 328.014 748.612 327.966 749.683 327.872C755.075 339.756 766.637 348.245 780.279 349.253C778.12 353.919 776.916 359.117 776.916 364.596C776.916 378.369 784.527 390.364 795.773 396.604C784.527 402.845 776.916 414.84 776.916 428.613C776.916 448.816 793.294 465.195 813.497 465.195C833.7 465.195 850.078 448.816 850.078 428.613C850.078 414.84 842.467 402.845 831.221 396.604C842.467 390.364 850.078 378.369 850.078 364.596C850.078 345.312 835.157 329.513 816.23 328.115C818.389 323.449 819.594 318.251 819.594 312.772C819.594 292.569 803.216 276.191 783.012 276.191C781.917 276.191 780.832 276.239 779.761 276.333C774.012 263.663 761.251 254.852 746.431 254.852C733.495 254.852 722.127 261.567 715.623 271.701C696.298 256.281 656.604 245.706 610.775 245.706C570.535 245.706 535.025 253.859 513.881 266.286C507.213 259.244 497.776 254.852 487.313 254.852C472.494 254.852 459.733 263.663 453.983 276.333C452.912 276.239 451.828 276.191 450.732 276.191C430.529 276.191 414.15 292.569 414.15 312.772C414.15 318.251 415.355 323.449 417.514 328.115C398.587 329.513 383.666 345.312 383.666 364.596C383.666 378.369 391.278 390.364 402.524 396.604C391.278 402.845 383.666 414.84 383.666 428.613C383.666 448.816 400.044 465.195 420.247 465.195C440.451 465.195 456.829 448.816 456.829 428.613C456.829 414.84 449.217 402.845 437.971 396.604C449.217 390.364 456.829 378.369 456.829 364.596C456.829 359.117 455.624 353.919 453.465 349.253C467.108 348.245 478.669 339.756 484.061 327.872C485.133 327.966 486.217 328.014 487.313 328.014C496.809 328.014 505.459 324.396 511.962 318.464C532.835 331.543 569.291 340.208 610.775 340.208Z" fill="#2F2725"/>
<path fill-rule="evenodd" clip-rule="evenodd" d="M610.775 340.208C657.689 340.208 698.175 329.126 716.961 313.11C723.622 322.15 734.342 328.014 746.431 328.014C747.527 328.014 748.612 327.966 749.683 327.872C755.075 339.756 766.637 348.245 780.279 349.253C778.12 353.919 776.916 359.117 776.916 364.596C776.916 378.369 784.527 390.364 795.773 396.604C784.527 402.845 776.916 414.84 776.916 428.613C776.916 448.816 793.294 465.195 813.497 465.195C833.7 465.195 850.078 448.816 850.078 428.613C850.078 414.84 842.467 402.845 831.221 396.604C842.467 390.364 850.078 378.369 850.078 364.596C850.078 345.312 835.157 329.513 816.23 328.115C818.389 323.449 819.594 318.251 819.594 312.772C819.594 292.569 803.216 276.191 783.012 276.191C781.917 276.191 780.832 276.239 779.761 276.333C774.012 263.663 761.251 254.852 746.431 254.852C733.495 254.852 722.127 261.567 715.623 271.701C696.298 256.281 656.604 245.706 610.775 245.706C570.535 245.706 535.025 253.859 513.881 266.286C507.213 259.244 497.776 254.852 487.313 254.852C472.494 254.852 459.733 263.663 453.983 276.333C452.912 276.239 451.828 276.191 450.732 276.191C430.529 276.191 414.15 292.569 414.15 312.772C414.15 318.251 415.355 323.449 417.514 328.115C398.587 329.513 383.666 345.312 383.666 364.596C383.666 378.369 391.278 390.364 402.524 396.604C391.278 402.845 383.666 414.84 383.666 428.613C383.666 448.816 400.044 465.195 420.247 465.195C440.451 465.195 456.829 448.816 456.829 428.613C456.829 414.84 449.217 402.845 437.971 396.604C449.217 390.364 456.829 378.369 456.829 364.596C456.829 359.117 455.624 353.919 453.465 349.253C467.108 348.245 478.669 339.756 484.061 327.872C485.133 327.966 486.217 328.014 487.313 328.014C496.809 328.014 505.459 324.396 511.962 318.464C532.835 331.543 569.291 340.208 610.775 340.208Z" fill="url(#paint5_linear)" style="mix-blend-mode:multiply"/>
<path d="M298.226 1195.18V1104.19" stroke="#A9683B" stroke-width="3.04845"/>
<path d="M921.834 1195.18V1104.19" stroke="#A9683B" stroke-width="3.04845"/>
<path d="M521.597 861.154L344.254 863.95C236.05 865.655 149.228 953.857 149.228 1062.07V1200H1050.77V1062.03C1050.77 953.833 963.973 865.638 855.785 863.91L683.221 861.154L649.754 901.332L608.534 987.792L565.304 901.332L521.597 861.154Z" fill="#E47A63"/>
<path d="M429.732 868.961L479.849 829.952L563.563 887.706L517.834 980.222L429.732 868.961Z" fill="#E76B4F"/>
<path d="M777.307 868.961L727.19 829.952L643.476 887.706L689.205 980.222L777.307 868.961Z" fill="#E76B4F"/>
<path d="M607.529 997.846L607.529 1187.86" stroke="#E7694E" stroke-width="15.2422" stroke-linecap="round"/>
<rect x="272.747" y="1053.14" width="181.969" height="146.86" fill="#E76B4F"/>
<rect x="762.611" y="1053.14" width="181.969" height="146.86" fill="#E76B4F"/>
<rect x="762.611" y="1053.14" width="181.969" height="51.0548" fill="#E05F43"/>
<rect x="272.747" y="1053.14" width="181.969" height="51.0548" fill="#E05F43"/>
<circle cx="584.69" cy="1015.07" r="6.0969" fill="#F5CBA7"/>
<circle cx="564.219" cy="943.392" r="6.0969" fill="#F5CBA7"/>
<circle cx="584.69" cy="1086.75" r="6.0969" fill="#F5CBA7"/>
<circle cx="584.69" cy="1162.18" r="6.0969" fill="#F5CBA7"/>
<path fill-rule="evenodd" clip-rule="evenodd" d="M565.304 901.331L559.476 895.973L563.562 887.706L479.849 829.951L438.07 862.47L344.254 863.949C236.051 865.655 149.228 953.857 149.228 1062.07V1200H1050.77V1062.03C1050.77 953.832 963.973 865.637 855.786 863.91L769.037 862.524L727.189 829.951L643.476 887.706L650.041 900.987L649.754 901.331L608.535 987.792L565.304 901.331Z" fill="url(#paint6_linear)" style="mix-blend-mode:multiply"/>
<defs>
<linearGradient id="paint0_linear" x1="1091.03" y1="821.974" x2="498.923" y2="1068.87" gradientUnits="userSpaceOnUse">
<stop stop-color="#C17E4F"/>
<stop offset="1" stop-color="#C17E4F" stop-opacity="0"/>
</linearGradient>
<linearGradient id="paint1_linear" x1="800.441" y1="617.071" x2="369.279" y2="247.626" gradientUnits="userSpaceOnUse">
<stop stop-color="#2F2725"/>
<stop offset="1" stop-color="#2F2725" stop-opacity="0"/>
</linearGradient>
<linearGradient id="paint2_linear" x1="865.321" y1="515.652" x2="803.007" y2="515.348" gradientUnits="userSpaceOnUse">
<stop stop-color="#C17E4F" stop-opacity="0"/>
<stop offset="1" stop-color="#E7CDBB"/>
</linearGradient>
<linearGradient id="paint3_linear" x1="614.271" y1="584.983" x2="614.271" y2="482.466" gradientUnits="userSpaceOnUse">
<stop stop-color="#E5C9B5"/>
<stop offset="1" stop-color="#C16F36" stop-opacity="0"/>
</linearGradient>
<linearGradient id="paint4_linear" x1="807.4" y1="500.743" x2="601.285" y2="499.877" gradientUnits="userSpaceOnUse">
<stop stop-color="#E7CDBB"/>
<stop offset="1" stop-color="#C17E4F" stop-opacity="0"/>
</linearGradient>
<linearGradient id="paint5_linear" x1="850.078" y1="199.235" x2="401.852" y2="311.057" gradientUnits="userSpaceOnUse">
<stop stop-color="#3F3D3C"/>
<stop offset="1" stop-color="#2F2725" stop-opacity="0"/>
</linearGradient>
<linearGradient id="paint6_linear" x1="1070.88" y1="760.675" x2="130.786" y2="1051.15" gradientUnits="userSpaceOnUse">
<stop stop-color="#F3E2DE"/>
<stop offset="0.592258" stop-color="#9B9B9B" stop-opacity="0"/>
</linearGradient>
</defs>
</svg>
