<svg width="1200" height="1200" viewBox="0 0 1200 1200" fill="none" xmlns="http://www.w3.org/2000/svg">
<rect width="1200" height="1200" fill="white"/>
<path d="M268.661 992.904C102.503 924.661 87.6672 722.897 176.68 488.495C281.106 213.509 672.505 -46.7737 942.195 203.653C1136.13 383.738 1066.81 770.371 942.195 951.365C689.898 1317.8 434.819 1061.15 268.661 992.904Z" fill="#CCA180"/>
<path fill-rule="evenodd" clip-rule="evenodd" d="M578.748 992.004H628.433C636.425 973.652 650.157 958.542 672.718 954.056C726.929 943.278 800.374 885.656 834.673 858.747L834.68 858.74C841.81 853.147 847.248 848.88 850.468 846.639C864.729 836.716 688.596 822.065 603.591 815.072C518.585 822.065 342.453 836.716 356.713 846.639C359.935 848.881 365.375 853.15 372.509 858.747C406.807 885.656 480.252 943.278 534.463 954.056C557.025 958.542 570.757 973.652 578.748 992.004Z" fill="#AE2828"/>
<path d="M591.778 580.17C292.124 702.101 244.356 808.882 244.356 872.659V978.097C324.002 1001.06 509.049 1049.97 588.114 1049.97C592.107 1020.03 587.515 957.732 537.201 948.148C485.137 938.231 414.601 885.214 381.661 860.456C374.81 855.306 369.585 851.379 366.491 849.316C352.796 840.186 521.952 826.706 603.59 820.272C685.228 826.706 854.384 840.186 840.688 849.316C837.594 851.379 832.369 855.306 825.518 860.456C792.578 885.214 722.043 938.231 669.979 948.148C619.665 957.732 615.072 1020.03 619.066 1049.97C698.131 1049.97 883.178 1001.06 962.823 978.097V872.659C962.823 808.882 915.056 702.101 615.402 580.17H591.778Z" fill="#CF2E2E"/>
<path fill-rule="evenodd" clip-rule="evenodd" d="M244.356 872.659C244.356 808.882 292.124 702.101 591.778 580.17H615.402C915.056 702.101 962.823 808.882 962.823 872.659V978.097C883.178 1001.06 698.131 1049.97 619.066 1049.97C617.088 1035.14 617.216 1012.37 623.963 992.004H583.217C589.963 1012.37 590.092 1035.14 588.114 1049.97C509.049 1049.97 324.002 1001.06 244.356 978.097V872.659Z" fill="url(#paint0_linear)" style="mix-blend-mode:multiply"/>
<path d="M600.344 702.591C446.547 702.591 380.011 801.85 362.559 847.662C329.836 880.385 854.491 902.2 842.492 847.662C830.494 793.124 754.141 702.591 600.344 702.591Z" fill="url(#paint1_linear)" style="mix-blend-mode:multiply"/>
<path d="M739.924 707.957V853.326C787.916 876.236 846.049 881.104 904.547 886.003C1049.84 898.17 1197.39 910.526 1197.39 1200H2.60547C2.60547 908.87 155.175 895.95 303.706 883.371C361.34 878.49 418.367 873.661 465.636 852.648V707.957C557.273 707.957 648.53 707.957 739.924 707.957Z" fill="#A76E41"/>
<path d="M739.924 707.957V853.326C787.916 876.236 846.049 881.104 904.547 886.003C1049.84 898.17 1197.39 910.526 1197.39 1200H2.60547C2.60547 908.87 155.175 895.95 303.706 883.371C361.34 878.49 418.367 873.661 465.636 852.648V707.957C557.273 707.957 648.53 707.957 739.924 707.957Z" fill="url(#paint2_linear)" style="mix-blend-mode:multiply"/>
<path fill-rule="evenodd" clip-rule="evenodd" d="M340.649 354.051C350.806 370.555 363.502 387.061 368.581 359.13C377.189 366.508 380.9 374.946 381.082 382.519C395.349 408.659 406.622 487.768 401.879 524.493C408.166 520.263 414.676 517.688 421.369 518.705C425.806 537.718 420.301 548.867 412.029 555.735C411.7 580.811 389.351 587.01 377.156 590.393C375.855 590.754 374.669 591.083 373.638 591.399C361.439 595.142 335.799 602.878 336.277 572.998C344.653 586.205 354.381 580.91 365.167 571.28C355.522 571.191 346.911 566.562 347.19 549.13C355.917 562.889 366.109 556.567 377.438 546.182C353.628 545.618 323.119 531.113 340.003 525.154C361.587 517.536 360.317 454.056 347.621 447.708C334.925 441.359 286.804 413.725 329.847 407.08C338.25 405.783 344.86 404.191 350.21 401.967C349.566 401.681 348.918 401.368 348.267 401.026C321.605 387.061 330.492 337.546 340.649 354.051ZM831.27 571.28C842.056 580.91 851.783 586.205 860.16 572.998C860.638 602.878 834.997 595.142 822.799 591.399C821.768 591.083 820.582 590.754 819.28 590.393C807.086 587.01 784.737 580.811 784.408 555.736C776.135 548.868 770.63 537.718 775.067 518.705C781.76 517.689 788.27 520.263 794.557 524.493C789.966 488.949 800.377 413.705 813.986 385.203C813.264 376.985 816.762 367.393 826.403 359.13C831.482 387.061 844.178 370.555 854.335 354.051C864.491 337.546 873.379 387.061 846.717 401.026C846.46 401.161 846.204 401.291 845.949 401.417C851.357 403.726 858.053 405.465 866.589 407.08C914.106 416.069 868.908 437.961 852.099 446.103C850.823 446.721 849.71 447.26 848.814 447.708C836.118 454.056 834.849 517.536 856.432 525.154C873.316 531.113 842.808 545.618 818.998 546.182C830.327 556.567 840.52 562.889 849.246 549.13C849.525 566.562 840.915 571.191 831.27 571.28Z" fill="black"/>
<path d="M844.416 377.541C827.636 377.541 814.033 391.143 814.033 407.923V491.258C814.033 508.038 813.747 521.641 830.527 521.641C880.071 521.641 895.013 377.541 844.416 377.541Z" fill="#A76E41"/>
<path d="M839.332 389.597C825.36 389.597 814.034 400.924 814.034 414.896V484.285C814.034 498.257 813.795 509.584 827.767 509.584C869.02 509.584 881.462 389.597 839.332 389.597Z" fill="#CDB7A5" style="mix-blend-mode:multiply"/>
<path d="M844.416 377.541C827.636 377.541 814.033 391.143 814.033 407.923V491.258C814.033 508.038 813.747 521.641 830.527 521.641C880.071 521.641 895.013 377.541 844.416 377.541Z" fill="url(#paint3_linear)" style="mix-blend-mode:multiply"/>
<path d="M382.446 249.868C361.871 270.139 378.637 654.062 400.732 688.08C422.828 722.098 480.295 782.158 598.027 782.158C715.759 782.158 788.98 717.019 801.929 690.619C814.877 664.219 835.125 273.977 813.608 249.868C802.861 237.828 700.438 177.615 598.027 178.081C495.38 178.549 392.746 239.721 382.446 249.868Z" fill="#A76E41"/>
<path d="M518.634 639.314C518.634 664.647 566.679 666.201 603.649 666.201C640.619 666.201 688.663 664.647 688.663 639.314C688.663 613.981 672.924 617.647 663.724 617.647C654.524 617.647 623.896 626.889 603.649 626.889C583.401 626.889 552.773 617.647 543.573 617.647C534.373 617.647 518.634 613.98 518.634 639.314Z" fill="#5E0202"/>
<path d="M673.693 619.869C688.144 619.869 688.152 628.969 685.336 632.465C685.336 632.465 636.577 639.577 605.865 638.756C575.154 637.935 519.645 632.515 519.645 632.515C518.673 628.921 521.305 621.627 528.298 621.394C537.038 621.102 655.629 619.869 673.693 619.869Z" fill="white"/>
<path d="M517.554 632.412C517.114 622.741 521.905 604.059 544.586 606.697C561.25 608.634 576.092 612.622 587.103 615.581C594.208 617.489 599.718 618.97 603.094 619.195C606.47 618.97 611.98 617.489 619.085 615.581C630.096 612.622 644.938 608.634 661.602 606.697C684.284 604.059 689.074 622.741 688.634 632.412C687.096 632.851 683.228 632.148 680.063 625.818C676.107 617.906 642.481 623.181 620.722 627.137C610.756 628.949 595.432 628.949 585.466 627.137C563.708 623.181 530.081 617.906 526.125 625.818C522.96 632.148 519.092 632.851 517.554 632.412Z" fill="#C98276"/>
<path d="M603.281 665.844C620.866 665.197 686.384 660.907 685.587 632.733C685.295 624.139 688.355 627.489 688.937 631.714C689.011 632.554 689.094 633.403 689.178 634.258C691.05 653.395 676.121 681.68 603.281 680.369C532.776 681.097 515.512 653.395 517.383 634.258C517.467 633.403 517.55 632.554 517.624 631.714C518.207 627.489 521.266 624.139 520.974 632.733C520.177 660.907 585.695 665.197 603.281 665.844Z" fill="#C98276"/>
<path d="M446.739 445.009C445.335 454.845 481.62 477.085 503.667 480.355C520.675 481.009 538.914 479.767 541.749 455.899C544.583 432.031 520.022 416.829 500.81 417.156C481.597 417.483 448.144 435.174 446.739 445.009Z" fill="white"/>
<circle cx="502.143" cy="441.805" r="21.7688" fill="#272727"/>
<path d="M448.142 443.604C461.856 445.754 491.713 473.303 502.063 472.088C527.875 469.058 543.102 474.861 538.084 476.7C509.71 487.102 477.292 479.778 445.197 453.012C442.041 450.38 437.902 447.868 439.305 444.36C440.708 440.852 444.781 443.077 448.142 443.604Z" fill="#A05E2A"/>
<path d="M444.421 445.21C462.679 440.75 491.158 420.512 512.871 423.774C522.881 424.057 535.685 429.454 540.835 439.45C543.919 445.437 552.448 447.306 552.448 438.572C552.803 432.619 531.736 415.714 525.406 414.806C502.626 411.536 470.618 417.616 447.439 438.572C439.272 440.665 436 447.029 444.421 445.21Z" fill="#A05E2A"/>
<path d="M759.836 445.009C761.241 454.845 724.956 477.085 702.909 480.355C685.901 481.009 667.662 479.766 664.827 455.898C661.992 432.03 686.553 416.828 705.766 417.155C724.978 417.482 758.432 435.173 759.836 445.009Z" fill="white"/>
<circle r="21.7688" transform="matrix(-1 0 0 1 704.435 441.804)" fill="#272727"/>
<path d="M758.433 443.603C744.719 445.753 714.862 473.303 704.512 472.088C678.7 469.058 663.473 474.86 668.491 476.7C696.866 487.101 729.283 479.777 761.378 453.011C764.534 450.38 768.673 447.868 767.27 444.359C765.867 440.851 761.794 443.076 758.433 443.603Z" fill="#A05E2A"/>
<path d="M762.155 445.21C743.898 440.749 715.418 420.511 693.706 423.773C683.695 424.057 670.891 429.453 665.741 439.45C662.657 445.437 654.128 447.306 654.129 438.572C653.773 432.619 674.841 415.714 681.17 414.805C703.95 411.536 735.958 417.615 759.137 438.572C767.304 440.665 770.576 447.028 762.155 445.21Z" fill="#A05E2A"/>
<path d="M603.288 448.812C588.715 448.812 582.647 460.627 582.647 475.201L576.9 521.3C576.9 523.376 577.14 525.395 577.592 527.332H570.478C557.629 527.332 547.213 537.748 547.213 550.597C547.213 563.446 557.629 567.549 570.478 567.549C570.478 567.549 592.406 578.901 603.288 578.901C614.171 578.901 636.099 567.549 636.099 567.549C648.948 567.549 659.364 563.446 659.364 550.597C659.364 537.748 648.948 527.332 636.099 527.332H628.985C629.437 525.395 629.677 523.376 629.677 521.3L623.063 475.201C623.063 460.627 617.862 448.812 603.288 448.812Z" fill="url(#paint4_linear)" style="mix-blend-mode:multiply"/>
<path d="M640.809 364.943C640.809 364.943 708.917 355.793 718.972 355.793C729.027 355.793 745.125 358.266 752.86 361.316C760.595 364.366 777.207 382.665 777.207 382.665C777.207 382.665 724.297 378.175 714.242 378.175C704.186 378.175 640.809 386.293 640.809 386.293V364.943Z" fill="#110F0B"/>
<path d="M563.769 364.943C563.769 364.943 495.661 355.793 485.605 355.793C475.55 355.793 459.452 358.266 451.717 361.316C443.982 364.366 427.37 382.665 427.37 382.665C427.37 382.665 480.28 378.175 490.335 378.175C500.391 378.175 563.769 386.293 563.769 386.293V364.943Z" fill="#110F0B"/>
<path d="M350.861 377.541C367.641 377.541 381.244 391.143 381.244 407.923V491.258C381.244 508.038 381.53 521.641 364.75 521.641C315.206 521.641 300.264 377.541 350.861 377.541Z" fill="#A76E41"/>
<path d="M356.802 391.632C370.301 391.632 381.243 402.574 381.243 416.072V483.109C381.243 496.607 381.473 507.55 367.975 507.55C328.121 507.55 316.101 391.632 356.802 391.632Z" fill="#CDB7A5" style="mix-blend-mode:multiply"/>
<path fill-rule="evenodd" clip-rule="evenodd" d="M449.526 227.691C449.715 228.25 449.864 229.003 449.968 229.924C453.17 232.932 456.92 236.817 460.788 241.523C461.327 242.178 461.224 243.138 460.558 243.668C459.893 244.198 458.917 244.096 458.378 243.441C455.491 239.929 452.68 236.895 450.135 234.362C450.043 240.125 448.992 248.503 446.623 257.54C448.877 259.854 451.289 262.514 453.748 265.507C454.287 266.161 454.183 267.122 453.518 267.651C452.852 268.181 451.877 268.079 451.338 267.425C449.393 265.058 447.482 262.909 445.664 260.984C443.785 267.352 441.249 273.918 437.936 280.026C439.995 282.173 442.174 284.601 444.391 287.299C444.929 287.953 444.826 288.914 444.161 289.443C443.495 289.973 442.519 289.872 441.981 289.217C440.05 286.868 438.153 284.732 436.347 282.818C432.458 289.327 427.617 295.168 421.668 299.481C420.081 300.632 418.636 301.922 417.321 303.332C419.917 305.921 422.763 309 425.677 312.544C426.215 313.199 426.112 314.159 425.447 314.689C424.781 315.219 423.805 315.117 423.267 314.462C420.494 311.089 417.791 308.156 415.326 305.685C410.722 311.659 407.992 319.288 406.41 327.372C409.403 330.247 412.812 333.839 416.32 338.106C416.858 338.76 416.755 339.721 416.089 340.25C415.424 340.78 414.448 340.678 413.91 340.024C411.062 336.559 408.289 333.56 405.771 331.049C404.63 338.51 404.35 346.2 404.381 353.212C407.304 356.039 410.607 359.537 414.002 363.668C414.541 364.322 414.438 365.283 413.772 365.812C413.107 366.342 412.131 366.24 411.592 365.586C409.112 362.568 406.687 359.903 404.439 357.606C404.5 360.521 404.598 363.27 404.687 365.779L404.687 365.779L404.687 365.781C404.847 370.257 398.162 395.564 393.795 411.427C402.685 445.293 380.107 466.495 357.528 423.344C349.013 407.071 349.611 407.925 353.784 413.882C360.788 423.882 377.863 448.262 378.816 430.157C379.019 426.296 379.277 422.689 379.591 419.393C375.074 412.093 370.222 399.006 367.279 379.104C344.728 336.029 359.995 244.66 382.546 206.807C466.359 66.1255 728.778 66.1238 812.591 206.805C835.143 244.658 856.194 336.029 833.643 379.104C830.223 398.735 823.903 412.363 817.831 420.573C818.096 423.544 818.318 426.752 818.497 430.157C819.45 448.262 836.525 423.882 843.529 413.882C847.702 407.925 848.3 407.071 839.785 423.344C819.645 461.833 799.506 449.123 801.698 421.894C799.866 407.106 796.049 371.007 796.235 365.781C796.324 363.272 796.422 360.521 796.483 357.606C794.235 359.903 791.811 362.568 789.33 365.586C788.792 366.24 787.816 366.342 787.15 365.812C786.485 365.283 786.382 364.322 786.92 363.668C790.315 359.537 793.618 356.039 796.541 353.212C796.572 346.2 796.292 338.51 795.151 331.049C792.634 333.56 789.86 336.559 787.013 340.024C786.474 340.678 785.499 340.78 784.833 340.25C784.167 339.721 784.064 338.76 784.603 338.106C788.11 333.839 791.52 330.247 794.512 327.372C792.93 319.288 790.201 311.659 785.596 305.685C783.132 308.156 780.428 311.089 777.655 314.462C777.117 315.117 776.141 315.219 775.476 314.689C774.81 314.159 774.707 313.199 775.245 312.544C778.159 309 781.005 305.921 783.601 303.332C782.286 301.922 780.841 300.632 779.255 299.481C773.305 295.168 768.464 289.327 764.575 282.818C762.769 284.732 760.872 286.868 758.941 289.217C758.403 289.872 757.427 289.973 756.762 289.443C756.096 288.914 755.993 287.953 756.531 287.299C758.749 284.601 760.927 282.173 762.986 280.026C759.673 273.918 757.137 267.352 755.258 260.984C753.44 262.909 751.529 265.058 749.584 267.425C749.046 268.079 748.07 268.181 747.404 267.651C746.739 267.122 746.636 266.161 747.174 265.507C749.634 262.514 752.045 259.854 754.299 257.54C751.931 248.503 750.879 240.125 750.787 234.362C748.242 236.895 745.431 239.929 742.544 243.441C742.006 244.096 741.03 244.198 740.364 243.668C739.699 243.138 739.596 242.178 740.134 241.523C744.002 236.817 747.752 232.932 750.954 229.924C751.058 229.003 751.207 228.25 751.397 227.691C753.713 220.854 745.356 214.901 731.297 210.025C730.563 214.574 729.909 220.819 729.909 228.175C729.909 229.017 729.215 229.7 728.359 229.7C727.503 229.7 726.809 229.017 726.809 228.175C726.81 220.403 727.522 213.805 728.319 209.035C721.238 206.777 712.933 204.767 703.945 203.028C703.249 207.522 702.649 213.552 702.649 220.602C702.649 221.444 701.955 222.127 701.099 222.127C700.243 222.127 699.549 221.444 699.549 220.602C699.549 213.355 700.169 207.128 700.899 202.453C693.117 201.023 684.885 199.791 676.537 198.769C675.906 203.142 675.389 208.805 675.389 215.347C675.389 216.189 674.695 216.872 673.839 216.872C672.983 216.872 672.289 216.189 672.289 215.347C672.289 208.706 672.81 202.921 673.459 198.402C666.695 197.619 659.883 196.974 653.198 196.475C652.684 200.558 652.295 205.571 652.295 211.245C652.295 212.087 651.601 212.77 650.745 212.77C649.889 212.77 649.195 212.087 649.195 211.245C649.195 205.525 649.581 200.441 650.103 196.253C641.581 195.67 633.315 195.329 625.679 195.243C625.298 198.871 625.034 203.098 625.034 207.774C625.034 208.616 624.34 209.299 623.484 209.299C622.628 209.299 621.934 208.616 621.934 207.774C621.934 203.123 622.19 198.892 622.566 195.222C615.064 195.207 608.252 195.453 602.511 195.975C602.283 198.285 602.105 200.823 602.012 203.554C602.057 204.917 602.082 206.325 602.082 207.774C602.082 208.616 601.388 209.299 600.532 209.299C600.509 209.299 600.485 209.298 600.461 209.297C600.449 209.298 600.437 209.298 600.425 209.298C600.413 209.298 600.402 209.299 600.39 209.299C599.534 209.299 598.84 208.616 598.84 207.774C598.84 206.325 598.865 204.917 598.911 203.554C598.817 200.823 598.639 198.285 598.412 195.975C592.67 195.453 585.858 195.207 578.357 195.222C578.733 198.892 578.988 203.123 578.988 207.774C578.988 208.616 578.294 209.299 577.438 209.299C576.582 209.299 575.888 208.616 575.888 207.774C575.888 203.098 575.624 198.871 575.243 195.243C567.607 195.329 559.341 195.67 550.819 196.253C551.341 200.441 551.727 205.525 551.727 211.245C551.727 212.087 551.033 212.77 550.177 212.77C549.321 212.77 548.628 212.087 548.628 211.245C548.627 205.571 548.239 200.558 547.724 196.475C541.04 196.974 534.227 197.619 527.464 198.402C528.113 202.921 528.633 208.706 528.633 215.347C528.633 216.189 527.939 216.872 527.083 216.872C526.227 216.872 525.533 216.189 525.533 215.347C525.533 208.805 525.017 203.142 524.386 198.769C516.038 199.791 507.805 201.023 500.023 202.453C500.753 207.128 501.373 213.355 501.373 220.602C501.373 221.444 500.679 222.127 499.823 222.127C498.967 222.127 498.273 221.444 498.273 220.602C498.273 213.552 497.673 207.522 496.977 203.028C487.99 204.767 479.684 206.777 472.603 209.035C473.4 213.805 474.113 220.403 474.113 228.175C474.113 229.017 473.419 229.7 472.563 229.7C471.707 229.7 471.013 229.017 471.013 228.175C471.013 220.819 470.36 214.574 469.626 210.025C455.566 214.901 447.21 220.854 449.526 227.691Z" fill="black"/>
<path d="M382.446 249.868C361.871 270.139 378.637 654.062 400.732 688.08C422.828 722.098 480.295 782.158 598.027 782.158C715.759 782.158 788.98 717.019 801.929 690.619C814.877 664.219 835.125 273.977 813.608 249.868C802.861 237.828 700.438 177.615 598.027 178.081C495.38 178.549 392.746 239.721 382.446 249.868Z" fill="url(#paint5_linear)" style="mix-blend-mode:multiply"/>
<path d="M248.905 838.904C245.633 851.178 244.413 862.468 244.413 872.659V889.084C117.18 904.35 2.60547 947.712 2.60547 1200H1197.39C1197.39 949.425 1086.83 906.495 962.88 891.591V872.659C962.88 862.468 961.66 851.178 958.388 838.904C913.288 838.904 873.023 827.798 840.745 849.316C837.652 851.378 832.432 855.302 825.586 860.448L825.575 860.456C798.497 880.808 704.038 941.671 670.036 948.148C629.141 955.937 618.451 998.547 618.026 1030.31H589.267C588.842 998.547 578.152 955.937 537.257 948.148C502.973 941.618 408.7 880.736 381.718 860.456L381.715 860.453C374.865 855.305 369.642 851.379 366.548 849.316C334.722 828.099 297.245 838.904 248.905 838.904Z" fill="#CF2E2E"/>
<path d="M248.905 838.904C245.633 851.178 244.413 862.468 244.413 872.659V889.084C117.18 904.35 2.60547 947.712 2.60547 1200H1197.39C1197.39 949.425 1086.83 906.495 962.88 891.591V872.659C962.88 862.468 961.66 851.178 958.388 838.904C913.288 838.904 873.023 827.798 840.745 849.316C837.652 851.378 832.432 855.302 825.586 860.448L825.575 860.456C798.497 880.808 704.038 941.671 670.036 948.148C629.141 955.937 618.451 998.547 618.026 1030.31H589.267C588.842 998.547 578.152 955.937 537.257 948.148C502.973 941.618 408.7 880.736 381.718 860.456L381.715 860.453C374.865 855.305 369.642 851.379 366.548 849.316C334.722 828.099 297.245 838.904 248.905 838.904Z" fill="url(#paint6_linear)" style="mix-blend-mode:multiply"/>
<path fill-rule="evenodd" clip-rule="evenodd" d="M589.817 1033.24C570.316 1047.42 500.114 1053.45 375.31 964.103C387.719 978.285 422.466 1011.97 462.176 1033.24C511.814 1059.83 603.999 1068.7 589.817 1033.24ZM618.923 1033.24C638.424 1047.42 708.626 1053.45 833.431 964.103C821.021 978.285 786.275 1011.97 746.564 1033.24C696.926 1059.83 604.741 1068.7 618.923 1033.24Z" fill="url(#paint7_linear)" style="mix-blend-mode:multiply"/>
<defs>
<linearGradient id="paint0_linear" x1="774.771" y1="907.309" x2="317.385" y2="930.004" gradientUnits="userSpaceOnUse">
<stop stop-color="#CB7E7E"/>
<stop offset="1" stop-color="#CF2E2E" stop-opacity="0"/>
</linearGradient>
<linearGradient id="paint1_linear" x1="1011.56" y1="658.961" x2="280.425" y2="790.975" gradientUnits="userSpaceOnUse">
<stop stop-color="#CF2E2E"/>
<stop offset="1" stop-color="#CF2E2E" stop-opacity="0"/>
</linearGradient>
<linearGradient id="paint2_linear" x1="806.194" y1="612.277" x2="448.316" y2="1060.93" gradientUnits="userSpaceOnUse">
<stop stop-color="#C5A78F"/>
<stop offset="1" stop-color="#A76E41" stop-opacity="0"/>
</linearGradient>
<linearGradient id="paint3_linear" x1="814.033" y1="449.591" x2="875.791" y2="449.591" gradientUnits="userSpaceOnUse">
<stop stop-color="#C3B1A2"/>
<stop offset="1" stop-color="#CFC4BC" stop-opacity="0"/>
</linearGradient>
<linearGradient id="paint4_linear" x1="603.288" y1="474.115" x2="603.288" y2="578.901" gradientUnits="userSpaceOnUse">
<stop stop-color="#A05E2A" stop-opacity="0"/>
<stop offset="1" stop-color="#D2B095"/>
</linearGradient>
<linearGradient id="paint5_linear" x1="823.043" y1="510.987" x2="382.393" y2="510.987" gradientUnits="userSpaceOnUse">
<stop stop-color="#BD987B"/>
<stop offset="0.466207" stop-color="#A76E41" stop-opacity="0"/>
</linearGradient>
<linearGradient id="paint6_linear" x1="1003.46" y1="924.766" x2="439.587" y2="1146.48" gradientUnits="userSpaceOnUse">
<stop stop-color="#CF2E2E"/>
<stop offset="1" stop-color="#CF2E2E" stop-opacity="0"/>
</linearGradient>
<linearGradient id="paint7_linear" x1="426.786" y1="913.108" x2="610.579" y2="1085.45" gradientUnits="userSpaceOnUse">
<stop stop-color="#CF2E2E"/>
<stop offset="1" stop-color="#CF2E2E" stop-opacity="0"/>
</linearGradient>
</defs>
</svg>
