<svg width="1200" height="1200" viewBox="0 0 1200 1200" fill="none" xmlns="http://www.w3.org/2000/svg">
<rect width="1200" height="1200" fill="white"/>
<path d="M268.661 992.904C102.503 924.661 87.6672 722.897 176.68 488.495C281.106 213.509 672.505 -46.7737 942.195 203.653C1136.13 383.738 1066.81 770.371 942.195 951.365C689.898 1317.8 434.819 1061.15 268.661 992.904Z" fill="#DA9482"/>
<path d="M678.988 821.979C800.993 924.125 1023.41 789.807 1054.78 1197.11H144.187C185.301 785.474 397.481 941.311 519.746 819.046C519.746 774.013 519.008 701.762 519.008 656.733H678.939L678.988 821.979Z" fill="#9C4630"/>
<path d="M678.988 821.979C800.993 924.125 1023.41 789.807 1054.78 1197.11H144.187C185.301 785.474 397.481 941.311 519.746 819.046C519.746 774.013 519.008 701.762 519.008 656.733H678.939L678.988 821.979Z" fill="url(#paint0_linear)" style="mix-blend-mode:multiply"/>
<path d="M868.086 501.836C868.086 538.664 840.465 594.778 806.393 594.778C772.321 594.778 744.701 564.923 744.701 528.094C744.701 491.265 772.321 461.409 806.393 461.409C840.465 461.409 868.086 465.007 868.086 501.836Z" fill="#9C4630"/>
<path d="M854.299 512.124C857.925 484.925 842.965 471.892 798.767 470.759C792.156 502.491 782.721 578.858 797.634 580.122C831.066 582.955 849.766 546.122 854.299 512.124Z" fill="#D69787" style="mix-blend-mode:multiply"/>
<path d="M867.084 501.836C867.084 538.665 839.463 594.779 805.391 594.779C771.319 594.779 743.699 564.923 743.699 528.094C743.699 491.265 771.319 461.41 805.391 461.41C839.463 461.41 867.084 465.007 867.084 501.836Z" fill="#E4B7AB" style="mix-blend-mode:multiply"/>
<path d="M322.646 501.836C322.646 538.665 350.267 594.779 384.339 594.779C418.41 594.779 446.031 564.923 446.031 528.094C446.031 491.265 418.41 461.41 384.339 461.41C350.267 461.41 322.646 465.007 322.646 501.836Z" fill="#9C4630"/>
<path d="M336.255 512.124C332.628 484.925 347.588 471.892 391.786 470.759C398.397 502.491 407.832 578.858 392.92 580.122C359.487 582.955 340.788 546.123 336.255 512.124Z" fill="#D69787" style="mix-blend-mode:multiply"/>
<path d="M386.721 248.602H804.012C804.012 248.602 812.76 634.484 786.2 673.209C759.641 711.935 666.545 789.014 595.367 789.014C524.189 789.014 430.972 706.368 408.449 673.209C385.926 640.051 386.721 248.602 386.721 248.602Z" fill="#9C4630"/>
<path d="M839.839 303.227C839.839 348.302 825.14 445.827 799.871 438.997C756.184 427.19 765.816 211.613 595.367 279.768C535.638 303.651 426.639 385.921 426.639 322.229C396.974 353.467 412.018 433.279 390.863 438.997C365.593 445.827 350.894 348.302 350.894 303.227C350.894 180.227 442.358 80.5165 577.376 80.5165C712.395 80.5165 839.839 180.227 839.839 303.227Z" fill="#171414"/>
<path d="M535.821 413.151V386.585C507.318 386.585 447.821 387.914 437.859 393.227C427.897 398.54 499.016 408.724 535.821 413.151Z" fill="#272727"/>
<path d="M654.908 413.151V386.585C683.411 386.585 742.908 387.913 752.87 393.226C762.832 398.54 691.713 408.723 654.908 413.151Z" fill="#272727"/>
<path fill-rule="evenodd" clip-rule="evenodd" d="M595.365 464.004C582.419 464.004 571.923 474.5 571.923 487.447V540.192C571.923 541.184 571.985 542.162 572.105 543.123H568.993C556.046 543.123 545.55 553.618 545.55 566.565C545.55 579.512 556.046 590.007 568.993 590.007H621.738C634.685 590.007 645.18 579.512 645.18 566.565C645.18 553.618 634.685 543.123 621.738 543.123H618.626C618.746 542.162 618.808 541.184 618.808 540.192V487.446C618.808 474.5 608.312 464.004 595.365 464.004Z" fill="url(#paint1_linear)" style="mix-blend-mode:multiply"/>
<path d="M452.765 477.887C450.763 491.701 472.516 501.46 493.58 504.584C509.829 505.209 530.067 506.752 532.776 483.948C535.484 461.145 515.038 453.799 496.682 454.111C478.326 454.423 455.356 460.004 452.765 477.887Z" fill="white"/>
<circle cx="503.834" cy="471.998" r="20.7981" fill="#272727"/>
<path d="M436.87 477.696C436.829 482.893 444.325 485.613 448.076 482.014C452.654 477.621 458.527 472.751 465.522 468.525C480.936 459.212 519.995 459.316 531.549 459.565C533.357 459.604 534.868 458.187 534.932 456.38C534.984 454.891 534.024 453.552 532.585 453.168C502.649 445.174 464.248 449.191 438.412 474.049C437.423 475.001 436.88 476.324 436.87 477.696Z" fill="#92361F"/>
<path d="M441.46 477.868C442.888 473.261 449.278 472.172 452.512 475.749C459.751 483.756 471.649 494.5 485.62 497.772C501.533 501.498 516.821 498.495 524.825 496.254C527.747 495.436 530.894 497.4 531.186 500.42C531.38 502.422 530.238 504.326 528.342 504.997C496.991 516.079 465.716 503.832 443.042 483.706C441.403 482.251 440.811 479.961 441.46 477.868Z" fill="#92361F"/>
<path d="M737.788 477.887C739.79 491.701 718.036 501.46 696.973 504.584C680.723 505.209 660.485 506.752 657.777 483.948C655.069 461.145 675.515 453.799 693.871 454.111C712.226 454.423 735.196 460.004 737.788 477.887Z" fill="white"/>
<circle r="20.7981" transform="matrix(-1 0 0 1 686.718 471.998)" fill="#272727"/>
<path d="M753.683 477.696C753.724 482.893 746.227 485.613 742.477 482.014C737.898 477.621 732.026 472.751 725.031 468.525C709.617 459.212 670.558 459.316 659.003 459.565C657.195 459.604 655.684 458.187 655.621 456.38C655.569 454.891 656.528 453.552 657.967 453.168C687.904 445.174 726.305 449.191 752.141 474.049C753.13 475.001 753.672 476.324 753.683 477.696Z" fill="#92361F"/>
<path d="M749.091 477.868C747.663 473.261 741.273 472.172 738.039 475.749C730.8 483.756 718.902 494.5 704.931 497.772C689.018 501.498 673.73 498.495 665.726 496.254C662.805 495.436 659.658 497.4 659.365 500.42C659.171 502.422 660.313 504.326 662.21 504.997C693.56 516.079 724.835 503.832 747.509 483.706C749.148 482.251 749.74 479.961 749.091 477.868Z" fill="#92361F"/>
<path d="M676.774 648.938C675.53 643.339 644.733 634.504 633.534 631.518C619.307 627.724 609.253 639.606 596.809 639.606C584.364 639.605 574.311 627.724 560.084 631.518C548.885 634.504 518.088 643.339 516.844 648.938C518.827 667.447 548.553 683.118 596.702 682.688C644.851 682.258 674.791 667.447 676.774 648.938Z" fill="#AD5454"/>
<path d="M510.656 650.268C536.166 639.262 570.219 656.386 594.853 656.386C621.68 656.386 651.319 637.99 680.075 650.079" stroke="#92361F" stroke-width="2.65572" stroke-linecap="round"/>
<path d="M597.266 597.108C566.497 597.108 527.154 606.414 511.349 610.504C507.352 611.539 504.899 615.499 505.663 619.556C506.452 623.744 510.387 626.576 514.608 625.994L591.417 615.408C595.41 614.858 599.465 614.953 603.428 615.691L676.887 629.375C681.242 630.186 685.563 627.809 687.21 623.698C689.216 618.692 686.561 613.067 681.373 611.594C664.062 606.68 626.579 597.108 597.266 597.108Z" fill="#272727" fill-opacity="0.35"/>
<path d="M386.721 248.602H804.012C804.012 248.602 812.76 634.484 786.2 673.209C759.641 711.935 666.545 789.014 595.367 789.014C524.189 789.014 430.972 706.368 408.449 673.209C385.926 640.051 386.721 248.602 386.721 248.602Z" fill="url(#paint2_linear)" style="mix-blend-mode:multiply"/>
<path fill-rule="evenodd" clip-rule="evenodd" d="M508.925 324.013C476.482 335.516 449.325 344.527 440.929 342.317C420.761 337.01 458.975 294.551 527.971 247.845C580.691 204.325 714.367 142.971 767.866 186.279C834.74 240.415 824.125 369.916 822.002 386.9C820.702 397.297 812.242 424.403 801.004 439.235C800.629 439.179 800.251 439.1 799.87 438.997C786.325 435.336 777.905 412.085 767.654 383.775C744.844 320.782 712.965 232.746 595.367 279.768C579.405 286.151 559.925 296.702 539.947 307.524C529.6 313.129 519.12 318.806 508.925 324.013Z" fill="url(#paint3_linear)" style="mix-blend-mode:multiply"/>
<path d="M138.189 1067.19V1200H1061.81V1067.19C1061.81 956.06 930.012 827.052 818.893 825.277L696.274 822.447L654.124 863.623L600 995.86L545.876 863.623L503.726 822.447L381.108 825.277C269.988 827.052 138.189 956.06 138.189 1067.19Z" fill="#E4A963"/>
<path d="M138.189 1067.19V1200H1061.81V1067.19C1061.81 956.06 930.012 827.052 818.893 825.277L696.274 822.447L654.124 863.623L600 995.86L545.876 863.623L503.726 822.447L381.108 825.277C269.988 827.052 138.189 956.06 138.189 1067.19Z" fill="url(#paint4_linear)" style="mix-blend-mode:multiply"/>
<defs>
<linearGradient id="paint0_linear" x1="1109.38" y1="949.989" x2="303.651" y2="949.99" gradientUnits="userSpaceOnUse">
<stop offset="0.449647" stop-color="#C29083"/>
<stop offset="0.822179" stop-color="#9C4630" stop-opacity="0"/>
</linearGradient>
<linearGradient id="paint1_linear" x1="595.365" y1="464.004" x2="595.365" y2="590.007" gradientUnits="userSpaceOnUse">
<stop offset="0.135551" stop-color="#92361F" stop-opacity="0"/>
<stop offset="1" stop-color="#C59F95"/>
</linearGradient>
<linearGradient id="paint2_linear" x1="830.494" y1="541.876" x2="460.036" y2="541.876" gradientUnits="userSpaceOnUse">
<stop stop-color="#C29083"/>
<stop offset="0.69341" stop-color="#9C4630" stop-opacity="0"/>
</linearGradient>
<linearGradient id="paint3_linear" x1="684.903" y1="250.422" x2="459.911" y2="259.719" gradientUnits="userSpaceOnUse">
<stop stop-color="#171414"/>
<stop offset="1" stop-color="#171414" stop-opacity="0"/>
</linearGradient>
<linearGradient id="paint4_linear" x1="1112.34" y1="929.175" x2="126.877" y2="1126.27" gradientUnits="userSpaceOnUse">
<stop stop-color="#DAC2A6"/>
<stop offset="0.630558" stop-color="#E4A963" stop-opacity="0"/>
</linearGradient>
</defs>
</svg>
