<svg width="1200" height="1200" viewBox="0 0 1200 1200" fill="none" xmlns="http://www.w3.org/2000/svg">
<rect width="1200" height="1200" fill="white"/>
<path d="M268.661 992.904C102.503 924.661 87.6672 722.897 176.68 488.495C281.106 213.509 672.505 -46.7737 942.195 203.653C1136.13 383.738 1066.81 770.371 942.195 951.365C689.898 1317.8 434.819 1061.15 268.661 992.904Z" fill="#E8D1C1"/>
<path d="M714.281 93.6228C649.098 87.2992 730.164 65.9279 555.447 30.0887C380.731 -5.7504 214.838 275.398 260.723 398.935C285.676 466.116 398.379 656.599 303.079 732.486C207.779 808.373 336.61 926.615 380.731 887.79C424.851 848.964 497.209 790.725 670.16 877.201C843.112 963.677 910.175 787.561 910.175 744.839C910.175 688.365 818.404 667.187 860.76 617.772C903.116 568.358 934.883 409.525 920.764 259.515C906.645 109.506 769.158 98.9468 714.281 93.6228Z" fill="#603129"/>
<path fill-rule="evenodd" clip-rule="evenodd" d="M569.51 839.313C644.769 756.171 576.419 648.172 524.578 598.15L394.915 407.658C367.305 459.113 343.631 537.134 332.378 582.324C346.727 641.127 345.91 698.38 303.079 732.486C207.779 808.373 336.611 926.615 380.731 887.789C415.107 857.538 466.625 815.502 569.51 839.313Z" fill="url(#paint0_linear)" style="mix-blend-mode:multiply"/>
<path fill-rule="evenodd" clip-rule="evenodd" d="M912.968 470.428C907.056 419.433 892.056 371.395 865.17 373.187C823.004 375.998 815.977 456.347 817.734 496.17C814.22 559.418 714.077 685.915 685.966 694.699C657.856 703.484 585.823 759.704 619.204 791.328C629.003 800.612 638.651 816.102 649.258 833.133C659.845 850.131 671.387 868.664 684.99 884.092C846.958 953.541 910.175 786.318 910.175 744.839C910.175 720.072 892.525 702.094 876.278 685.545C855.479 664.359 836.98 645.516 860.76 617.772C882.583 592.313 901.595 537.807 912.968 470.428Z" fill="url(#paint1_linear)" style="mix-blend-mode:multiply"/>
<path d="M694.266 777.114C699.894 962.632 1117.89 777.114 1117.89 1200H82.1055C82.1055 777.114 514.754 952.834 514.754 773.808C514.754 723.043 513.922 641.595 513.922 590.833H694.211L694.266 777.114Z" fill="#C17E4F"/>
<path d="M694.266 777.114C699.894 962.632 1117.89 777.114 1117.89 1200H82.1055C82.1055 777.114 514.754 952.834 514.754 773.808C514.754 723.043 513.922 641.595 513.922 590.833H694.211L694.266 777.114Z" fill="url(#paint2_linear)" style="mix-blend-mode:multiply"/>
<path d="M889.216 391.8C889.216 452.609 878.997 526.853 817.615 512.711C780.654 504.195 799.865 465.984 799.865 429.512C799.865 393.04 787.884 363.474 825.896 363.474C863.909 363.474 889.216 355.328 889.216 391.8Z" fill="#C17E4F"/>
<path d="M875.82 397.895C876.278 374.987 860.243 373.155 825.882 378.652C828.478 406.294 833.945 469.182 833.212 481.277C832.296 496.396 831.838 505.559 854.287 488.607C876.736 471.656 875.362 420.802 875.82 397.895Z" fill="#D9BBA6" style="mix-blend-mode:multiply"/>
<path d="M889.216 391.8C889.216 452.609 878.997 526.853 817.615 512.711C780.654 504.195 799.865 465.984 799.865 429.512C799.865 393.04 787.884 363.474 825.896 363.474C863.909 363.474 889.216 355.328 889.216 391.8Z" fill="url(#paint3_linear)" style="mix-blend-mode:multiply"/>
<path d="M372.339 303.829C372.339 233.652 429.229 176.762 499.406 176.762H700.594C770.771 176.762 827.661 233.652 827.661 303.829L817.305 579.14C817.305 639.343 771.587 689.767 714.285 702.884C695.351 707.218 676.029 710.937 657.706 717.382C641.131 723.212 619.482 729.143 600 729.143C584.633 729.143 569.395 725.453 556.654 721.033C534.556 713.368 511.438 707.461 488.806 701.556C431.591 686.628 381.496 637.475 381.496 579.14L372.339 303.829Z" fill="#C17E4F"/>
<path d="M451.003 414.471C449.889 430.166 474.2 443.531 498.422 442.692C516.742 442.057 540.289 440.562 541.457 414.701C542.625 388.84 519.033 382.264 498.422 384.125C477.811 385.987 452.445 394.152 451.003 414.471Z" fill="white"/>
<circle cx="496.177" cy="408.397" r="23.4456" fill="#272727"/>
<path d="M487.157 393.464C509.472 393.352 540.761 403.871 547.738 400.699C554.715 397.527 527.917 376.675 487.157 378.242C454.67 379.49 436.968 389.331 428.956 397.658C423.587 403.238 415.769 406.545 417.567 407.726C419.076 408.716 430.954 408.849 437.879 406.472C451.528 401.787 472.353 393.538 487.157 393.464Z" fill="#C16F36"/>
<path d="M761.175 415.954C762.289 431.649 737.978 445.014 713.756 444.175C695.435 443.54 671.889 442.045 670.721 416.184C669.553 390.323 693.144 383.747 713.756 385.609C734.367 387.47 759.733 395.635 761.175 415.954Z" fill="white"/>
<circle r="23.4456" transform="matrix(-1 0 0 1 716.001 409.88)" fill="#272727"/>
<path d="M725.02 394.947C702.705 394.835 671.417 405.354 664.44 402.182C657.463 399.01 684.261 378.158 725.02 379.725C757.508 380.973 775.209 390.814 783.222 399.141C788.591 404.721 796.409 408.028 794.61 409.209C793.101 410.199 781.223 410.332 774.299 407.955C760.649 403.27 739.825 395.021 725.02 394.947Z" fill="#C16F36"/>
<path d="M390.113 464.486C379.708 324.418 439.737 291.602 421.328 298.805C402.919 306.009 370.053 319.673 370.053 319.673L373.106 535.628C377.307 538.922 393.569 511 390.113 464.486Z" fill="#603129"/>
<path d="M660.473 334.5C660.473 334.5 685.657 324 696.57 324C707.484 324 734.347 331 742.742 334.5C751.137 338 778 359 778 359C778 359 707.484 346.75 696.57 346.75C685.657 346.75 660.473 359 660.473 359V334.5Z" fill="#110F0B"/>
<path d="M550.527 334.5C550.527 334.5 525.343 324 514.43 324C503.516 324 476.653 331 468.258 334.5C459.863 338 433 359 433 359C433 359 503.516 346.75 514.43 346.75C525.343 346.75 550.527 359 550.527 359V334.5Z" fill="#110F0B"/>
<path fill-rule="evenodd" clip-rule="evenodd" d="M604.42 398.936C591.615 398.936 581.234 409.317 581.234 422.122V474.29C581.234 477.117 581.74 479.825 582.666 482.33L579.258 481.318C561.722 476.11 544.114 489.249 544.114 507.542C544.114 520.537 553.248 531.754 566.057 533.945C578.77 536.12 594.296 538.429 604.839 538.82C615.481 539.214 630.978 536.844 643.541 534.445C656.054 532.055 664.726 520.923 664.726 508.184C664.726 489.601 646.803 476.279 629.009 481.636L626.107 482.51C627.076 479.955 627.606 477.185 627.606 474.29V422.122C627.606 409.317 617.226 398.936 604.42 398.936Z" fill="#C16F36"/>
<path d="M679.714 599.712C678.495 594.229 648.339 585.578 637.373 582.653C623.443 578.939 613.598 590.574 601.413 590.573C589.227 590.573 579.383 578.939 565.452 582.653C554.486 585.578 524.33 594.229 523.112 599.712C525.054 617.836 554.161 633.18 601.308 632.759C648.455 632.338 677.772 617.835 679.714 599.712Z" fill="#AD5454"/>
<path d="M517.053 601.014C542.032 590.237 575.377 607.004 599.498 607.004C625.766 607.004 654.789 588.991 682.946 600.828" stroke="#92361F" stroke-width="2.60045" stroke-linecap="round"/>
<path d="M372.339 303.829C372.339 233.652 429.229 176.762 499.406 176.762H700.594C770.771 176.762 827.661 233.652 827.661 303.829L817.305 579.14C817.305 639.343 771.587 689.767 714.285 702.884C695.351 707.218 676.029 710.937 657.706 717.382C641.131 723.212 619.482 729.143 600 729.143C584.633 729.143 569.395 725.453 556.654 721.033C534.556 713.368 511.438 707.461 488.806 701.556C431.591 686.628 381.496 637.475 381.496 579.14L372.339 303.829Z" fill="url(#paint4_linear)" style="mix-blend-mode:multiply"/>
<path d="M583.684 229.513C486.62 224.219 389.555 347.756 366.612 321.284C343.67 294.811 361.671 137.743 603.097 137.743C904.881 137.743 843.112 312.46 846.642 398.936C849.466 468.116 806.051 606.007 795.462 660.128C786.638 640.715 788.403 557.416 795.462 513.649C804.286 458.939 749.577 462.469 738.988 443.056C728.399 423.643 724.87 368.934 738.988 321.284C753.107 273.634 680.749 234.808 583.684 229.513Z" fill="#603129"/>
<path d="M699.695 777.114C701.933 850.88 763.939 861.798 844.37 879.813C882.912 888.446 924.44 897.747 963.207 914.492C983.995 1028.52 980.976 1090.66 963.207 1200H236.792C217.017 1090.17 217.046 1027.29 236.792 912.832C278.871 893.667 324.343 883.217 366.08 873.625C447.531 854.906 512.498 844.376 512.498 773.808C512.498 770.797 512.495 767.677 512.489 764.463H699.691L699.695 777.114Z" fill="#D7B2E3"/>
<path fill-rule="evenodd" clip-rule="evenodd" d="M549.157 845.299C551.106 845.299 552.687 843.719 552.687 841.77C552.687 839.821 551.106 838.24 549.157 838.24C547.208 838.24 545.627 839.821 545.627 841.77C545.627 843.719 547.208 845.299 549.157 845.299ZM459.307 895.417C461.257 895.417 462.837 893.836 462.837 891.887C462.837 889.938 461.257 888.357 459.307 888.357C457.358 888.357 455.778 889.938 455.778 891.887C455.778 893.836 457.358 895.417 459.307 895.417ZM279.608 945.534C281.558 945.534 283.138 943.953 283.138 942.004C283.138 940.055 281.558 938.474 279.608 938.474C277.659 938.474 276.079 940.055 276.079 942.004C276.079 943.953 277.659 945.534 279.608 945.534ZM265.24 995.651C267.19 995.651 268.77 994.071 268.77 992.121C268.77 990.172 267.19 988.592 265.24 988.592C263.291 988.592 261.711 990.172 261.711 992.121C261.711 994.071 263.291 995.651 265.24 995.651ZM261.711 1042.24C261.711 1044.19 260.13 1045.77 258.181 1045.77C256.232 1045.77 254.651 1044.19 254.651 1042.24C254.651 1040.29 256.232 1038.71 258.181 1038.71C260.13 1038.71 261.711 1040.29 261.711 1042.24ZM265.24 1095.89C267.19 1095.89 268.77 1094.31 268.77 1092.36C268.77 1090.41 267.19 1088.83 265.24 1088.83C263.291 1088.83 261.711 1090.41 261.711 1092.36C261.711 1094.31 263.291 1095.89 265.24 1095.89ZM279.608 1142.47C279.608 1144.42 278.028 1146 276.079 1146C274.129 1146 272.549 1144.42 272.549 1142.47C272.549 1140.52 274.129 1138.94 276.079 1138.94C278.028 1138.94 279.608 1140.52 279.608 1142.47ZM279.608 1189.3C281.558 1189.3 283.138 1187.72 283.138 1185.77C283.138 1183.82 281.558 1182.24 279.608 1182.24C277.659 1182.24 276.079 1183.82 276.079 1185.77C276.079 1187.72 277.659 1189.3 279.608 1189.3ZM372.987 942.004C372.987 943.953 371.407 945.534 369.458 945.534C367.508 945.534 365.928 943.953 365.928 942.004C365.928 940.055 367.508 938.474 369.458 938.474C371.407 938.474 372.987 940.055 372.987 942.004ZM362.399 995.651C364.348 995.651 365.928 994.071 365.928 992.121C365.928 990.172 364.348 988.592 362.399 988.592C360.449 988.592 358.869 990.172 358.869 992.121C358.869 994.071 360.449 995.651 362.399 995.651ZM362.274 1042.24C362.274 1044.19 360.693 1045.77 358.744 1045.77C356.795 1045.77 355.214 1044.19 355.214 1042.24C355.214 1040.29 356.795 1038.71 358.744 1038.71C360.693 1038.71 362.274 1040.29 362.274 1042.24ZM365.803 1095.89C367.753 1095.89 369.333 1094.31 369.333 1092.36C369.333 1090.41 367.753 1088.83 365.803 1088.83C363.854 1088.83 362.274 1090.41 362.274 1092.36C362.274 1094.31 363.854 1095.89 365.803 1095.89ZM372.987 1142.47C372.987 1144.42 371.407 1146 369.458 1146C367.508 1146 365.928 1144.42 365.928 1142.47C365.928 1140.52 367.508 1138.94 369.458 1138.94C371.407 1138.94 372.987 1140.52 372.987 1142.47ZM369.458 1189.3C371.407 1189.3 372.987 1187.72 372.987 1185.77C372.987 1183.82 371.407 1182.24 369.458 1182.24C367.508 1182.24 365.928 1183.82 365.928 1185.77C365.928 1187.72 367.508 1189.3 369.458 1189.3ZM462.837 942.004C462.837 943.953 461.257 945.534 459.307 945.534C457.358 945.534 455.778 943.953 455.778 942.004C455.778 940.055 457.358 938.474 459.307 938.474C461.257 938.474 462.837 940.055 462.837 942.004ZM462.837 992.121C462.837 994.071 461.257 995.651 459.307 995.651C457.358 995.651 455.778 994.071 455.778 992.121C455.778 990.172 457.358 988.592 459.307 988.592C461.257 988.592 462.837 990.172 462.837 992.121ZM459.307 1045.77C461.257 1045.77 462.837 1044.19 462.837 1042.24C462.837 1040.29 461.257 1038.71 459.307 1038.71C457.358 1038.71 455.778 1040.29 455.778 1042.24C455.778 1044.19 457.358 1045.77 459.307 1045.77ZM462.837 1092.36C462.837 1094.31 461.257 1095.89 459.307 1095.89C457.358 1095.89 455.778 1094.31 455.778 1092.36C455.778 1090.41 457.358 1088.83 459.307 1088.83C461.257 1088.83 462.837 1090.41 462.837 1092.36ZM459.307 1146C461.257 1146 462.837 1144.42 462.837 1142.47C462.837 1140.52 461.257 1138.94 459.307 1138.94C457.358 1138.94 455.778 1140.52 455.778 1142.47C455.778 1144.42 457.358 1146 459.307 1146ZM462.837 1185.77C462.837 1187.72 461.257 1189.3 459.307 1189.3C457.358 1189.3 455.778 1187.72 455.778 1185.77C455.778 1183.82 457.358 1182.24 459.307 1182.24C461.257 1182.24 462.837 1183.82 462.837 1185.77ZM549.157 945.534C551.106 945.534 552.687 943.953 552.687 942.004C552.687 940.055 551.106 938.474 549.157 938.474C547.208 938.474 545.627 940.055 545.627 942.004C545.627 943.953 547.208 945.534 549.157 945.534ZM552.687 891.887C552.687 893.836 551.106 895.417 549.157 895.417C547.208 895.417 545.627 893.836 545.627 891.887C545.627 889.938 547.208 888.357 549.157 888.357C551.106 888.357 552.687 889.938 552.687 891.887ZM552.687 992.121C552.687 994.071 551.106 995.651 549.157 995.651C547.208 995.651 545.627 994.071 545.627 992.121C545.627 990.172 547.208 988.592 549.157 988.592C551.106 988.592 552.687 990.172 552.687 992.121ZM549.157 1045.77C551.106 1045.77 552.687 1044.19 552.687 1042.24C552.687 1040.29 551.106 1038.71 549.157 1038.71C547.208 1038.71 545.627 1040.29 545.627 1042.24C545.627 1044.19 547.208 1045.77 549.157 1045.77ZM552.687 1092.36C552.687 1094.31 551.106 1095.89 549.157 1095.89C547.208 1095.89 545.627 1094.31 545.627 1092.36C545.627 1090.41 547.208 1088.83 549.157 1088.83C551.106 1088.83 552.687 1090.41 552.687 1092.36ZM549.157 1146C551.106 1146 552.687 1144.42 552.687 1142.47C552.687 1140.52 551.106 1138.94 549.157 1138.94C547.208 1138.94 545.627 1140.52 545.627 1142.47C545.627 1144.42 547.208 1146 549.157 1146ZM552.687 1185.77C552.687 1187.72 551.106 1189.3 549.157 1189.3C547.208 1189.3 545.627 1187.72 545.627 1185.77C545.627 1183.82 547.208 1182.24 549.157 1182.24C551.106 1182.24 552.687 1183.82 552.687 1185.77ZM639.007 945.534C640.956 945.534 642.536 943.953 642.536 942.004C642.536 940.055 640.956 938.474 639.007 938.474C637.057 938.474 635.477 940.055 635.477 942.004C635.477 943.953 637.057 945.534 639.007 945.534ZM642.536 891.887C642.536 893.836 640.956 895.417 639.007 895.417C637.057 895.417 635.477 893.836 635.477 891.887C635.477 889.938 637.057 888.357 639.007 888.357C640.956 888.357 642.536 889.938 642.536 891.887ZM639.007 845.299C640.956 845.299 642.536 843.719 642.536 841.77C642.536 839.821 640.956 838.24 639.007 838.24C637.057 838.24 635.477 839.821 635.477 841.77C635.477 843.719 637.057 845.299 639.007 845.299ZM642.536 992.121C642.536 994.071 640.956 995.651 639.007 995.651C637.057 995.651 635.477 994.071 635.477 992.121C635.477 990.172 637.057 988.592 639.007 988.592C640.956 988.592 642.536 990.172 642.536 992.121ZM639.007 1045.77C640.956 1045.77 642.536 1044.19 642.536 1042.24C642.536 1040.29 640.956 1038.71 639.007 1038.71C637.057 1038.71 635.477 1040.29 635.477 1042.24C635.477 1044.19 637.057 1045.77 639.007 1045.77ZM642.536 1092.36C642.536 1094.31 640.956 1095.89 639.007 1095.89C637.057 1095.89 635.477 1094.31 635.477 1092.36C635.477 1090.41 637.057 1088.83 639.007 1088.83C640.956 1088.83 642.536 1090.41 642.536 1092.36ZM639.007 1146C640.956 1146 642.536 1144.42 642.536 1142.47C642.536 1140.52 640.956 1138.94 639.007 1138.94C637.057 1138.94 635.477 1140.52 635.477 1142.47C635.477 1144.42 637.057 1146 639.007 1146ZM642.536 1185.77C642.536 1187.72 640.956 1189.3 639.007 1189.3C637.057 1189.3 635.477 1187.72 635.477 1185.77C635.477 1183.82 637.057 1182.24 639.007 1182.24C640.956 1182.24 642.536 1183.82 642.536 1185.77ZM728.856 945.534C730.805 945.534 732.386 943.953 732.386 942.004C732.386 940.055 730.805 938.474 728.856 938.474C726.907 938.474 725.326 940.055 725.326 942.004C725.326 943.953 726.907 945.534 728.856 945.534ZM732.386 891.887C732.386 893.836 730.805 895.417 728.856 895.417C726.907 895.417 725.326 893.836 725.326 891.887C725.326 889.938 726.907 888.357 728.856 888.357C730.805 888.357 732.386 889.938 732.386 891.887ZM728.856 995.651C730.805 995.651 732.386 994.071 732.386 992.121C732.386 990.172 730.805 988.592 728.856 988.592C726.907 988.592 725.326 990.172 725.326 992.121C725.326 994.071 726.907 995.651 728.856 995.651ZM732.386 1042.24C732.386 1044.19 730.805 1045.77 728.856 1045.77C726.907 1045.77 725.326 1044.19 725.326 1042.24C725.326 1040.29 726.907 1038.71 728.856 1038.71C730.805 1038.71 732.386 1040.29 732.386 1042.24ZM728.856 1095.89C730.805 1095.89 732.386 1094.31 732.386 1092.36C732.386 1090.41 730.805 1088.83 728.856 1088.83C726.907 1088.83 725.326 1090.41 725.326 1092.36C725.326 1094.31 726.907 1095.89 728.856 1095.89ZM732.386 1142.47C732.386 1144.42 730.805 1146 728.856 1146C726.907 1146 725.326 1144.42 725.326 1142.47C725.326 1140.52 726.907 1138.94 728.856 1138.94C730.805 1138.94 732.386 1140.52 732.386 1142.47ZM728.856 1189.3C730.805 1189.3 732.386 1187.72 732.386 1185.77C732.386 1183.82 730.805 1182.24 728.856 1182.24C726.907 1182.24 725.326 1183.82 725.326 1185.77C725.326 1187.72 726.907 1189.3 728.856 1189.3ZM822.235 942.004C822.235 943.953 820.655 945.534 818.706 945.534C816.756 945.534 815.176 943.953 815.176 942.004C815.176 940.055 816.756 938.474 818.706 938.474C820.655 938.474 822.235 940.055 822.235 942.004ZM825.765 995.651C827.714 995.651 829.294 994.071 829.294 992.121C829.294 990.172 827.714 988.592 825.765 988.592C823.815 988.592 822.235 990.172 822.235 992.121C822.235 994.071 823.815 995.651 825.765 995.651ZM843.527 1042.24C843.527 1044.19 841.947 1045.77 839.997 1045.77C838.048 1045.77 836.468 1044.19 836.468 1042.24C836.468 1040.29 838.048 1038.71 839.997 1038.71C841.947 1038.71 843.527 1040.29 843.527 1042.24ZM825.765 1095.89C827.714 1095.89 829.294 1094.31 829.294 1092.36C829.294 1090.41 827.714 1088.83 825.765 1088.83C823.815 1088.83 822.235 1090.41 822.235 1092.36C822.235 1094.31 823.815 1095.89 825.765 1095.89ZM822.235 1142.47C822.235 1144.42 820.655 1146 818.706 1146C816.756 1146 815.176 1144.42 815.176 1142.47C815.176 1140.52 816.756 1138.94 818.706 1138.94C820.655 1138.94 822.235 1140.52 822.235 1142.47ZM818.706 1189.3C820.655 1189.3 822.235 1187.72 822.235 1185.77C822.235 1183.82 820.655 1182.24 818.706 1182.24C816.756 1182.24 815.176 1183.82 815.176 1185.77C815.176 1187.72 816.756 1189.3 818.706 1189.3ZM912.085 942.004C912.085 943.953 910.505 945.534 908.555 945.534C906.606 945.534 905.026 943.953 905.026 942.004C905.026 940.055 906.606 938.474 908.555 938.474C910.505 938.474 912.085 940.055 912.085 942.004ZM920.634 995.651C922.583 995.651 924.164 994.071 924.164 992.121C924.164 990.172 922.583 988.592 920.634 988.592C918.685 988.592 917.104 990.172 917.104 992.121C917.104 994.071 918.685 995.651 920.634 995.651ZM940.22 1042.24C940.22 1044.19 938.64 1045.77 936.69 1045.77C934.741 1045.77 933.161 1044.19 933.161 1042.24C933.161 1040.29 934.741 1038.71 936.69 1038.71C938.64 1038.71 940.22 1040.29 940.22 1042.24ZM920.634 1095.89C922.583 1095.89 924.164 1094.31 924.164 1092.36C924.164 1090.41 922.583 1088.83 920.634 1088.83C918.685 1088.83 917.104 1090.41 917.104 1092.36C917.104 1094.31 918.685 1095.89 920.634 1095.89ZM912.085 1142.47C912.085 1144.42 910.505 1146 908.555 1146C906.606 1146 905.026 1144.42 905.026 1142.47C905.026 1140.52 906.606 1138.94 908.555 1138.94C910.505 1138.94 912.085 1140.52 912.085 1142.47ZM908.555 1189.3C910.505 1189.3 912.085 1187.72 912.085 1185.77C912.085 1183.82 910.505 1182.24 908.555 1182.24C906.606 1182.24 905.026 1183.82 905.026 1185.77C905.026 1187.72 906.606 1189.3 908.555 1189.3Z" fill="#A062B4"/>
<path d="M699.695 777.114C701.933 850.88 763.939 861.798 844.37 879.813C882.912 888.446 924.44 897.747 963.207 914.492C983.995 1028.52 980.976 1090.66 963.207 1200H236.792C217.017 1090.17 217.046 1027.29 236.792 912.832C278.871 893.667 324.343 883.217 366.08 873.625C447.531 854.906 512.498 844.376 512.498 773.808C512.498 770.797 512.495 767.677 512.489 764.463H699.691L699.695 777.114Z" fill="url(#paint5_linear)" style="mix-blend-mode:multiply"/>
<defs>
<linearGradient id="paint0_linear" x1="495.764" y1="590.147" x2="391.714" y2="747.023" gradientUnits="userSpaceOnUse">
<stop stop-color="#D7D7D7"/>
<stop offset="1" stop-color="#603129" stop-opacity="0"/>
</linearGradient>
<linearGradient id="paint1_linear" x1="722.861" y1="580.501" x2="812.463" y2="875.659" gradientUnits="userSpaceOnUse">
<stop stop-color="#A28883"/>
<stop offset="1" stop-color="#C2B8B6" stop-opacity="0"/>
</linearGradient>
<linearGradient id="paint2_linear" x1="600" y1="590.833" x2="600" y2="1200" gradientUnits="userSpaceOnUse">
<stop stop-color="#EFDFD4"/>
<stop offset="1" stop-color="#C17E4F" stop-opacity="0"/>
</linearGradient>
<linearGradient id="paint3_linear" x1="903.811" y1="400.812" x2="787.948" y2="408.011" gradientUnits="userSpaceOnUse">
<stop offset="0.161458" stop-color="#C17E4F" stop-opacity="0"/>
<stop offset="0.786458" stop-color="#D2AE95"/>
</linearGradient>
<linearGradient id="paint4_linear" x1="898.104" y1="315.485" x2="340.538" y2="361.427" gradientUnits="userSpaceOnUse">
<stop offset="0.104078" stop-color="#D2AE95"/>
<stop offset="0.584273" stop-color="#C17E4F" stop-opacity="0"/>
</linearGradient>
<linearGradient id="paint5_linear" x1="599.83" y1="764.463" x2="599.83" y2="1200" gradientUnits="userSpaceOnUse">
<stop stop-color="#D4C5DA"/>
<stop offset="0.640625" stop-color="#D7B2E3" stop-opacity="0"/>
</linearGradient>
</defs>
</svg>
