<svg width="1200" height="1200" viewBox="0 0 1200 1200" fill="none" xmlns="http://www.w3.org/2000/svg">
<g clip-path="url(#clip0)">
<rect width="1200" height="1200" fill="white"/>
<path d="M268.661 992.904C102.503 924.661 87.6672 722.897 176.68 488.495C281.106 213.509 672.505 -46.7737 942.195 203.653C1136.13 383.738 1066.81 770.371 942.195 951.365C689.898 1317.8 434.819 1061.15 268.661 992.904Z" fill="#FEDCAF"/>
<path d="M317.614 243.2C377.338 177.365 380.255 124.062 478.201 124.062H706.562C802.085 124.062 861.17 137.374 902.394 250.551C943.618 363.729 953.74 809.406 925.417 838.88C897.094 868.354 327.25 896.166 297.584 824.047C267.917 751.928 257.891 309.036 317.614 243.2Z" fill="#31190D"/>
<path d="M566.684 869.651C453.325 868.831 347.858 859.87 310.599 837.29C295.301 797.617 352.667 728.199 376.362 699.527C381.037 693.87 384.402 689.798 385.639 687.855C389.625 681.591 389.968 641.806 390.397 592.018C390.974 525.078 391.707 440.055 401.661 394.114C416.67 324.84 512.548 273.537 555.48 250.564C562.197 246.97 567.617 244.07 571.23 241.902C586.094 232.983 614.612 250.129 644.347 268.007C668.028 282.245 692.482 296.947 711.424 299.315C727.08 301.272 743.632 301.437 758.255 301.582C783.542 301.833 803.063 302.026 802.217 311.332C805.333 314.447 804.888 326.019 778.184 347.382C761.051 361.088 704.523 345.248 648.86 329.65C596.074 314.858 544.065 300.284 527.168 311.332C492.454 334.03 488.448 641.123 516.487 681.179C544.526 721.235 577.906 832.055 576.57 858.759C576.356 863.043 572.844 866.673 566.684 869.651Z" fill="url(#paint0_linear)" style="mix-blend-mode:multiply"/>
<path d="M904.273 846.996C858.637 857.777 749.092 866.989 635.367 869.206C619.748 819.858 651.479 724.841 672.704 699.871C695.402 673.168 824.915 515.615 807.558 419.482C802.829 393.294 798.497 373.151 795.129 357.485C786.13 315.644 784.003 305.752 799.547 297.98C834.262 297.98 894.345 363.404 875.652 424.823C856.96 486.241 858.295 555.671 882.328 599.732C904.213 639.855 917.241 807.298 904.273 846.996Z" fill="url(#paint1_linear)" style="mix-blend-mode:multiply"/>
<path d="M792.877 413.382C795.242 394.173 811.559 379.743 830.913 379.743C848.862 379.743 864.646 392.286 864.878 410.234C865 419.633 864.251 430.056 861.626 439.735C854.282 466.82 837.009 520.192 816.09 520.192C809.694 520.192 804.051 518.237 799.297 515.522C785.963 507.905 783.322 490.972 785.199 475.731L792.877 413.382Z" fill="#FFC77D"/>
<path d="M851.863 421.053C851.863 393.324 833.794 391.021 821.24 390.607C813.929 425.923 798.185 510.616 815.032 505.661C836.139 499.453 851.863 443.236 851.863 421.053Z" fill="#E5CAA6" style="mix-blend-mode:multiply"/>
<path d="M695.19 772.966C700.873 960.304 1122.97 772.966 1122.97 1200H77.0258C77.0258 772.966 513.917 950.41 513.917 769.628C513.917 718.365 513.078 636.118 513.078 584.859H695.134L695.19 772.966Z" fill="#FFC77D"/>
<path d="M511.827 754.97C586.998 751.704 629.569 749.399 696.812 754.97C700.294 765.725 700.027 771.754 696.812 782.508C624.571 787.253 584.066 787.129 511.827 782.508C506.992 772.331 506.94 766.308 511.827 754.97Z" fill="#5F7BE0"/>
<path d="M695.19 772.966C700.873 960.304 1122.97 772.966 1122.97 1200H77.0258C77.0258 772.966 513.917 950.41 513.917 769.628C513.917 718.365 513.078 636.118 513.078 584.859H695.134L695.19 772.966Z" fill="url(#paint2_linear)" style="mix-blend-mode:multiply"/>
<path d="M370.648 419.293C368.547 407.009 367.17 394.545 367.976 382.108C375.541 265.425 453.369 173.701 558.059 173.701H629.344C738.274 173.701 821.603 273.005 823.56 396.404C823.607 399.355 823.662 402.317 823.69 405.268C823.808 417.794 823.215 456.548 813.658 516.449C801.869 590.339 682.45 763.964 593.702 765.905C504.954 767.845 393.973 585.096 385.119 516.449C379.583 473.522 374.031 439.078 370.648 419.293Z" fill="#FFC77D"/>
<path d="M595.484 394.077C574.82 392.933 579.099 447.407 578.926 458.551C578.389 493.223 577.841 528.581 559.449 526.738C530.982 523.885 531.914 547.392 539.478 559.503C539.478 559.503 573.979 567.113 597.036 567.113C620.092 567.113 651.489 559.503 651.489 559.503C659.054 547.392 659.986 523.885 631.518 526.738C613.127 528.581 612.579 493.223 612.042 458.551C611.869 447.407 616.147 392.933 595.484 394.077Z" fill="url(#paint3_linear)"/>
<path d="M475.937 449.704C436.113 437.09 419.108 425.618 423.457 424.398C448.44 417.388 463.124 416.368 480.59 417.457C502.422 418.817 536.968 444.34 532.713 445.004C512.142 448.213 512.809 454.384 475.937 449.704Z" fill="white"/>
<circle cx="486.415" cy="431.905" r="17.3847" transform="rotate(3.56574 486.415 431.905)" fill="#272727"/>
<path d="M487.759 419.396C507.053 423.005 530.188 446.24 533.081 445.976C535.974 445.713 532.504 426.29 515.128 413.783C496.595 400.444 458.939 398.654 423.315 420.742C420.612 422.418 410.559 418.71 409.957 421.351C409.354 423.993 421.323 428.118 424.373 428.425C444.327 430.437 464.762 415.517 487.759 419.396Z" fill="black"/>
<path d="M715.12 449.719C754.893 436.948 771.853 425.408 767.499 424.205C742.488 417.295 727.8 416.333 710.339 417.49C688.512 418.937 654.068 444.596 658.325 445.243C678.909 448.371 678.267 454.545 715.12 449.719Z" fill="white"/>
<circle r="17.3847" transform="matrix(-0.99781 0.0661385 0.0661385 0.99781 704.572 431.961)" fill="#272727"/>
<path d="M703.178 419.457C683.898 423.143 660.856 446.469 657.962 446.216C655.068 445.964 658.46 426.527 675.787 413.952C694.267 400.54 731.916 398.601 767.627 420.548C770.337 422.214 780.374 418.466 780.988 421.105C781.601 423.744 769.648 427.916 766.599 428.235C746.654 430.326 726.16 415.487 703.178 419.457Z" fill="black"/>
<path d="M519.486 631.967C520.942 625.103 549.17 614.959 559.889 614.959C570.607 614.959 600.291 623.313 600.291 623.313C600.291 623.313 632.448 615.795 640.693 615.795C648.938 615.795 676.662 625.103 681.095 633.638C684.557 640.99 621.468 666.704 600.291 666.704C576.917 666.704 517.676 642.461 519.486 631.967Z" fill="#DD8475"/>
<path d="M517.192 633.201C545.601 618.43 571.193 642.648 598.627 642.648C628.502 642.648 650.783 616.977 682.807 633.201" stroke="#C16B5C" stroke-width="3.56425" stroke-linecap="round"/>
<path d="M658.385 356.8C658.385 356.8 684.445 346 695.738 346C707.031 346 734.829 353.2 743.516 356.8C752.202 360.4 780 382 780 382C780 382 707.031 369.4 695.738 369.4C684.445 369.4 658.385 382 658.385 382V356.8Z" fill="#110F0B"/>
<path d="M544.615 356.8C544.615 356.8 518.555 346 507.262 346C495.969 346 468.171 353.2 459.484 356.8C450.798 360.4 423 382 423 382C423 382 495.969 369.4 507.262 369.4C518.555 369.4 544.615 382 544.615 382V356.8Z" fill="#110F0B"/>
<path d="M370.648 419.293C368.547 407.009 367.17 394.545 367.976 382.108C375.541 265.425 453.369 173.701 558.059 173.701H629.344C738.274 173.701 821.603 273.005 823.56 396.404C823.607 399.355 823.662 402.317 823.69 405.268C823.808 417.794 823.215 456.548 813.658 516.449C801.869 590.339 682.45 763.964 593.702 765.905C504.954 767.845 393.973 585.096 385.119 516.449C379.583 473.522 374.031 439.078 370.648 419.293Z" fill="url(#paint4_linear)" style="mix-blend-mode:multiply"/>
<path d="M879.948 212.447C858.615 277.163 799.605 323.681 730.148 323.681C679.923 323.681 601.414 298.799 572.41 260.861C506.382 323.681 472.332 321.395 424.717 424.376C377.101 527.358 472.323 898.034 407.341 850.08C394.614 840.688 289.186 707.6 315.198 392.795L319.762 260.861C302.183 136.37 374.087 87.3713 478.202 85.3688C582.317 83.3663 595.59 116.47 595.59 116.47C595.59 116.47 629.061 87.0719 730.148 85.3688C831.234 83.6657 879.184 123.437 879.948 212.447Z" fill="#31190D"/>
<path d="M347.043 736.862C357.941 721.817 368.846 708.622 376.362 699.527C381.037 693.869 384.401 689.798 385.638 687.855C389.625 681.59 389.968 641.805 390.397 592.018C390.974 525.078 373.788 437.249 383.742 391.308C398.751 322.034 512.548 273.536 555.48 250.564C562.196 246.97 569.565 228.211 573.177 226.043C588.042 217.125 614.612 250.129 644.346 268.006C668.028 282.245 692.482 296.947 711.424 299.315C727.08 301.272 743.631 301.436 758.255 301.581C778.357 301.781 794.815 301.944 800.294 306.678C779.152 317.563 755.337 323.681 730.148 323.681C679.924 323.681 601.415 298.799 572.41 260.861C552.631 279.679 535.722 292.655 520.457 304.368C484.765 331.757 458.069 352.244 424.717 424.376C401.173 475.298 412.552 591.672 422.218 690.522C432.1 791.581 440.191 874.322 407.341 850.08C401.004 845.403 371.678 810.052 347.043 736.862Z" fill="url(#paint5_linear)" style="mix-blend-mode:multiply"/>
<path d="M247.609 1200L128.569 993.818C179.089 920.29 258.531 893.98 332.127 875.75C372.936 946.635 601.658 1078.71 601.658 1078.71C601.658 1078.71 826.798 948.335 869.055 879.345C945.98 897.558 1029.91 923.416 1079.19 1007.1L967.817 1200H247.609Z" fill="#FEF0E7"/>
<path d="M247.609 1200L128.569 993.818C179.089 920.29 258.531 893.98 332.127 875.75C372.936 946.635 601.658 1078.71 601.658 1078.71C601.658 1078.71 826.798 948.335 869.055 879.345C945.98 897.558 1029.91 923.416 1079.19 1007.1L967.817 1200H247.609Z" fill="url(#paint6_linear)" style="mix-blend-mode:multiply"/>
</g>
<defs>
<linearGradient id="paint0_linear" x1="555.787" y1="239.467" x2="555.787" y2="869.651" gradientUnits="userSpaceOnUse">
<stop stop-color="#815038"/>
<stop offset="1" stop-color="#31190D" stop-opacity="0"/>
</linearGradient>
<linearGradient id="paint1_linear" x1="770.312" y1="297.98" x2="770.312" y2="869.206" gradientUnits="userSpaceOnUse">
<stop stop-color="#815038"/>
<stop offset="1" stop-color="#31190D" stop-opacity="0"/>
</linearGradient>
<linearGradient id="paint2_linear" x1="338.359" y1="826.558" x2="704.623" y2="1124.36" gradientUnits="userSpaceOnUse">
<stop stop-color="#EDD4B4"/>
<stop offset="0.720528" stop-color="#FFC77D" stop-opacity="0"/>
</linearGradient>
<linearGradient id="paint3_linear" x1="595.484" y1="543.806" x2="595.484" y2="410.946" gradientUnits="userSpaceOnUse">
<stop stop-color="#F6B056"/>
<stop offset="1" stop-color="#F8B967" stop-opacity="0"/>
</linearGradient>
<linearGradient id="paint4_linear" x1="800.434" y1="600.985" x2="381.432" y2="477.605" gradientUnits="userSpaceOnUse">
<stop offset="0.579061" stop-color="#ECD7BB" stop-opacity="0"/>
<stop offset="0.938172" stop-color="#D7B992"/>
</linearGradient>
<linearGradient id="paint5_linear" x1="746.139" y1="75.0035" x2="411.007" y2="661.151" gradientUnits="userSpaceOnUse">
<stop stop-color="#815038"/>
<stop offset="0.809183" stop-color="#31190D" stop-opacity="0"/>
</linearGradient>
<linearGradient id="paint6_linear" x1="175.765" y1="1057.61" x2="752.545" y2="1189.4" gradientUnits="userSpaceOnUse">
<stop stop-color="#FEF0E7"/>
<stop offset="1" stop-color="#FEF0E7" stop-opacity="0"/>
</linearGradient>
<clipPath id="clip0">
<rect width="1200" height="1200" fill="white"/>
</clipPath>
</defs>
</svg>
