<!-- <svg xmlns="http://www.w3.org/2000/svg" version="1.1" xmlns:xlink="http://www.w3.org/1999/xlink" xmlns:svgjs="http://svgjs.dev/svgjs" viewBox="0 0 800 450" opacity="0.61"><defs><filter id="bbblurry-filter" x="-100%" y="-100%" width="400%" height="400%" filterUnits="objectBoundingBox" primitiveUnits="userSpaceOnUse" color-interpolation-filters="sRGB">
	<feGaussianBlur stdDeviation="83" x="0%" y="0%" width="100%" height="100%" in="SourceGraphic" edgeMode="none" result="blur"></feGaussianBlur></filter></defs><g filter="url(#bbblurry-filter)"><ellipse rx="160.5" ry="101.5" cx="863.515469637784" cy="258.05514387650925" fill="hsla(42, 94%, 54%, 1.00)"></ellipse></g></svg> -->

   <svg xmlns="http://www.w3.org/2000/svg" version="1.1" xmlns:xlink="http://www.w3.org/1999/xlink" xmlns:svgjs="http://svgjs.dev/svgjs" viewBox="0 0 2400 800" opacity="0.96"><defs><linearGradient x1="50%" y1="0%" x2="50%" y2="100%" id="sssurf-grad"><stop stop-color="hsla(33, 94%, 53%, 1.00)" stop-opacity="1" offset="0%"></stop><stop stop-color="hsla(272, 99%, 54%, 1.00)" stop-opacity="1" offset="100%"></stop></linearGradient></defs><g fill="url(#sssurf-grad)" transform="matrix(1,0,0,1,-10.4755859375,48.990753173828125)"><path d="M-10,10C242.08333333333331,51.66666666666667,697.9166666666666,243.54166666666666,1200,210C1702.0833333333335,176.45833333333334,2097.9166666666665,-190.58333333333334,2400,-151C2702.0833333333335,-111.41666666666666,3254.1666666666665,181.04166666666669,2650,400C2045.8333333333335,618.9583333333333,156.25,795.8333333333334,-500,900" transform="matrix(1,0,0,1,0,108)" opacity="0.05"></path><path d="M-10,10C242.08333333333331,51.66666666666667,697.9166666666666,243.54166666666666,1200,210C1702.0833333333335,176.45833333333334,2097.9166666666665,-190.58333333333334,2400,-151C2702.0833333333335,-111.41666666666666,3254.1666666666665,181.04166666666669,2650,400C2045.8333333333335,618.9583333333333,156.25,795.8333333333334,-500,900" transform="matrix(1,0,0,1,0,216)" opacity="0.24"></path><path d="M-10,10C242.08333333333331,51.66666666666667,697.9166666666666,243.54166666666666,1200,210C1702.0833333333335,176.45833333333334,2097.9166666666665,-190.58333333333334,2400,-151C2702.0833333333335,-111.41666666666666,3254.1666666666665,181.04166666666669,2650,400C2045.8333333333335,618.9583333333333,156.25,795.8333333333334,-500,900" transform="matrix(1,0,0,1,0,324)" opacity="0.43"></path><path d="M-10,10C242.08333333333331,51.66666666666667,697.9166666666666,243.54166666666666,1200,210C1702.0833333333335,176.45833333333334,2097.9166666666665,-190.58333333333334,2400,-151C2702.0833333333335,-111.41666666666666,3254.1666666666665,181.04166666666669,2650,400C2045.8333333333335,618.9583333333333,156.25,795.8333333333334,-500,900" transform="matrix(1,0,0,1,0,432)" opacity="0.62"></path><path d="M-10,10C242.08333333333331,51.66666666666667,697.9166666666666,243.54166666666666,1200,210C1702.0833333333335,176.45833333333334,2097.9166666666665,-190.58333333333334,2400,-151C2702.0833333333335,-111.41666666666666,3254.1666666666665,181.04166666666669,2650,400C2045.8333333333335,618.9583333333333,156.25,795.8333333333334,-500,900" transform="matrix(1,0,0,1,0,540)" opacity="0.81"></path><path d="M-10,10C242.08333333333331,51.66666666666667,697.9166666666666,243.54166666666666,1200,210C1702.0833333333335,176.45833333333334,2097.9166666666665,-190.58333333333334,2400,-151C2702.0833333333335,-111.41666666666666,3254.1666666666665,181.04166666666669,2650,400C2045.8333333333335,618.9583333333333,156.25,795.8333333333334,-500,900" transform="matrix(1,0,0,1,0,648)" opacity="1.00"></path></g></svg>