<svg xmlns="http://www.w3.org/2000/svg" version="1.1" xmlns:xlink="http://www.w3.org/1999/xlink" xmlns:svgjs="http://svgjs.dev/svgjs" viewBox="0 0 800 800"><defs><linearGradient gradientTransform="rotate(270)" x1="50%" y1="0%" x2="50%" y2="100%" id="sssquiggly-grad"><stop stop-color="hsl(37, 99%, 67%)" stop-opacity="1" offset="0%"></stop><stop stop-color="hsl(316, 73%, 52%)" stop-opacity="1" offset="100%"></stop></linearGradient></defs><g stroke-width="2" stroke="url(#sssquiggly-grad)" fill="none" stroke-linecap="round" transform="matrix(1,0,0,1,0,54.040164947509766)"><path d="M10,10C21.805555555555557,11.666666666666666,40.97222222222223,24.25,66.66666666666667,18C92.36111111111111,11.75,105.55555555555557,-22.708333333333332,133.33333333333334,-20C161.11111111111111,-17.291666666666668,172.22222222222223,32.041666666666664,200,31C227.77777777777777,29.958333333333332,238.8888888888889,-28.333333333333332,266.6666666666667,-25C294.44444444444446,-21.666666666666668,305.5555555555556,45.541666666666664,333.33333333333337,47C361.11111111111114,48.458333333333336,372.22222222222223,-17.375,400,-18C427.77777777777777,-18.625,438.8888888888889,40.875,466.6666666666667,44C494.44444444444446,47.125,505.5555555555556,-4.666666666666666,533.3333333333334,-3C561.1111111111111,-1.3333333333333335,572.2222222222222,54.083333333333336,600,52C627.7777777777778,49.916666666666664,638.8888888888889,-10.083333333333332,666.6666666666667,-13C694.4444444444446,-15.916666666666668,707.6388888888889,33.208333333333336,733.3333333333334,38C759.0277777777778,42.791666666666664,778.1944444444445,15.833333333333334,790,10"></path><path d="M10,10C21.805555555555557,11.666666666666666,40.97222222222223,24.25,66.66666666666667,18C92.36111111111111,11.75,105.55555555555557,-22.708333333333332,133.33333333333334,-20C161.11111111111111,-17.291666666666668,172.22222222222223,32.041666666666664,200,31C227.77777777777777,29.958333333333332,238.8888888888889,-28.333333333333332,266.6666666666667,-25C294.44444444444446,-21.666666666666668,305.5555555555556,45.541666666666664,333.33333333333337,47C361.11111111111114,48.458333333333336,372.22222222222223,-17.375,400,-18C427.77777777777777,-18.625,438.8888888888889,40.875,466.6666666666667,44C494.44444444444446,47.125,505.5555555555556,-4.666666666666666,533.3333333333334,-3C561.1111111111111,-1.3333333333333335,572.2222222222222,54.083333333333336,600,52C627.7777777777778,49.916666666666664,638.8888888888889,-10.083333333333332,666.6666666666667,-13C694.4444444444446,-15.916666666666668,707.6388888888889,33.208333333333336,733.3333333333334,38C759.0277777777778,42.791666666666664,778.1944444444445,15.833333333333334,790,10" transform="matrix(1,0,0,1,0,665)"></path><path d="M10,10C21.805555555555557,11.666666666666666,40.97222222222223,24.25,66.66666666666667,18C92.36111111111111,11.75,105.55555555555557,-22.708333333333332,133.33333333333334,-20C161.11111111111111,-17.291666666666668,172.22222222222223,32.041666666666664,200,31C227.77777777777777,29.958333333333332,238.8888888888889,-28.333333333333332,266.6666666666667,-25C294.44444444444446,-21.666666666666668,305.5555555555556,45.541666666666664,333.33333333333337,47C361.11111111111114,48.458333333333336,372.22222222222223,-17.375,400,-18C427.77777777777777,-18.625,438.8888888888889,40.875,466.6666666666667,44C494.44444444444446,47.125,505.5555555555556,-4.666666666666666,533.3333333333334,-3C561.1111111111111,-1.3333333333333335,572.2222222222222,54.083333333333336,600,52C627.7777777777778,49.916666666666664,638.8888888888889,-10.083333333333332,666.6666666666667,-13C694.4444444444446,-15.916666666666668,707.6388888888889,33.208333333333336,733.3333333333334,38C759.0277777777778,42.791666666666664,778.1944444444445,15.833333333333334,790,10" transform="matrix(1,0,0,1,0,630)"></path><path d="M10,10C21.805555555555557,11.666666666666666,40.97222222222223,24.25,66.66666666666667,18C92.36111111111111,11.75,105.55555555555557,-22.708333333333332,133.33333333333334,-20C161.11111111111111,-17.291666666666668,172.22222222222223,32.041666666666664,200,31C227.77777777777777,29.958333333333332,238.8888888888889,-28.333333333333332,266.6666666666667,-25C294.44444444444446,-21.666666666666668,305.5555555555556,45.541666666666664,333.33333333333337,47C361.11111111111114,48.458333333333336,372.22222222222223,-17.375,400,-18C427.77777777777777,-18.625,438.8888888888889,40.875,466.6666666666667,44C494.44444444444446,47.125,505.5555555555556,-4.666666666666666,533.3333333333334,-3C561.1111111111111,-1.3333333333333335,572.2222222222222,54.083333333333336,600,52C627.7777777777778,49.916666666666664,638.8888888888889,-10.083333333333332,666.6666666666667,-13C694.4444444444446,-15.916666666666668,707.6388888888889,33.208333333333336,733.3333333333334,38C759.0277777777778,42.791666666666664,778.1944444444445,15.833333333333334,790,10" transform="matrix(1,0,0,1,0,595)"></path><path d="M10,10C21.805555555555557,11.666666666666666,40.97222222222223,24.25,66.66666666666667,18C92.36111111111111,11.75,105.55555555555557,-22.708333333333332,133.33333333333334,-20C161.11111111111111,-17.291666666666668,172.22222222222223,32.041666666666664,200,31C227.77777777777777,29.958333333333332,238.8888888888889,-28.333333333333332,266.6666666666667,-25C294.44444444444446,-21.666666666666668,305.5555555555556,45.541666666666664,333.33333333333337,47C361.11111111111114,48.458333333333336,372.22222222222223,-17.375,400,-18C427.77777777777777,-18.625,438.8888888888889,40.875,466.6666666666667,44C494.44444444444446,47.125,505.5555555555556,-4.666666666666666,533.3333333333334,-3C561.1111111111111,-1.3333333333333335,572.2222222222222,54.083333333333336,600,52C627.7777777777778,49.916666666666664,638.8888888888889,-10.083333333333332,666.6666666666667,-13C694.4444444444446,-15.916666666666668,707.6388888888889,33.208333333333336,733.3333333333334,38C759.0277777777778,42.791666666666664,778.1944444444445,15.833333333333334,790,10" transform="matrix(1,0,0,1,0,560)"></path><path d="M10,10C21.805555555555557,11.666666666666666,40.97222222222223,24.25,66.66666666666667,18C92.36111111111111,11.75,105.55555555555557,-22.708333333333332,133.33333333333334,-20C161.11111111111111,-17.291666666666668,172.22222222222223,32.041666666666664,200,31C227.77777777777777,29.958333333333332,238.8888888888889,-28.333333333333332,266.6666666666667,-25C294.44444444444446,-21.666666666666668,305.5555555555556,45.541666666666664,333.33333333333337,47C361.11111111111114,48.458333333333336,372.22222222222223,-17.375,400,-18C427.77777777777777,-18.625,438.8888888888889,40.875,466.6666666666667,44C494.44444444444446,47.125,505.5555555555556,-4.666666666666666,533.3333333333334,-3C561.1111111111111,-1.3333333333333335,572.2222222222222,54.083333333333336,600,52C627.7777777777778,49.916666666666664,638.8888888888889,-10.083333333333332,666.6666666666667,-13C694.4444444444446,-15.916666666666668,707.6388888888889,33.208333333333336,733.3333333333334,38C759.0277777777778,42.791666666666664,778.1944444444445,15.833333333333334,790,10" transform="matrix(1,0,0,1,0,525)"></path><path d="M10,10C21.805555555555557,11.666666666666666,40.97222222222223,24.25,66.66666666666667,18C92.36111111111111,11.75,105.55555555555557,-22.708333333333332,133.33333333333334,-20C161.11111111111111,-17.291666666666668,172.22222222222223,32.041666666666664,200,31C227.77777777777777,29.958333333333332,238.8888888888889,-28.333333333333332,266.6666666666667,-25C294.44444444444446,-21.666666666666668,305.5555555555556,45.541666666666664,333.33333333333337,47C361.11111111111114,48.458333333333336,372.22222222222223,-17.375,400,-18C427.77777777777777,-18.625,438.8888888888889,40.875,466.6666666666667,44C494.44444444444446,47.125,505.5555555555556,-4.666666666666666,533.3333333333334,-3C561.1111111111111,-1.3333333333333335,572.2222222222222,54.083333333333336,600,52C627.7777777777778,49.916666666666664,638.8888888888889,-10.083333333333332,666.6666666666667,-13C694.4444444444446,-15.916666666666668,707.6388888888889,33.208333333333336,733.3333333333334,38C759.0277777777778,42.791666666666664,778.1944444444445,15.833333333333334,790,10" transform="matrix(1,0,0,1,0,490)"></path><path d="M10,10C21.805555555555557,11.666666666666666,40.97222222222223,24.25,66.66666666666667,18C92.36111111111111,11.75,105.55555555555557,-22.708333333333332,133.33333333333334,-20C161.11111111111111,-17.291666666666668,172.22222222222223,32.041666666666664,200,31C227.77777777777777,29.958333333333332,238.8888888888889,-28.333333333333332,266.6666666666667,-25C294.44444444444446,-21.666666666666668,305.5555555555556,45.541666666666664,333.33333333333337,47C361.11111111111114,48.458333333333336,372.22222222222223,-17.375,400,-18C427.77777777777777,-18.625,438.8888888888889,40.875,466.6666666666667,44C494.44444444444446,47.125,505.5555555555556,-4.666666666666666,533.3333333333334,-3C561.1111111111111,-1.3333333333333335,572.2222222222222,54.083333333333336,600,52C627.7777777777778,49.916666666666664,638.8888888888889,-10.083333333333332,666.6666666666667,-13C694.4444444444446,-15.916666666666668,707.6388888888889,33.208333333333336,733.3333333333334,38C759.0277777777778,42.791666666666664,778.1944444444445,15.833333333333334,790,10" transform="matrix(1,0,0,1,0,455)"></path><path d="M10,10C21.805555555555557,11.666666666666666,40.97222222222223,24.25,66.66666666666667,18C92.36111111111111,11.75,105.55555555555557,-22.708333333333332,133.33333333333334,-20C161.11111111111111,-17.291666666666668,172.22222222222223,32.041666666666664,200,31C227.77777777777777,29.958333333333332,238.8888888888889,-28.333333333333332,266.6666666666667,-25C294.44444444444446,-21.666666666666668,305.5555555555556,45.541666666666664,333.33333333333337,47C361.11111111111114,48.458333333333336,372.22222222222223,-17.375,400,-18C427.77777777777777,-18.625,438.8888888888889,40.875,466.6666666666667,44C494.44444444444446,47.125,505.5555555555556,-4.666666666666666,533.3333333333334,-3C561.1111111111111,-1.3333333333333335,572.2222222222222,54.083333333333336,600,52C627.7777777777778,49.916666666666664,638.8888888888889,-10.083333333333332,666.6666666666667,-13C694.4444444444446,-15.916666666666668,707.6388888888889,33.208333333333336,733.3333333333334,38C759.0277777777778,42.791666666666664,778.1944444444445,15.833333333333334,790,10" transform="matrix(1,0,0,1,0,420)"></path><path d="M10,10C21.805555555555557,11.666666666666666,40.97222222222223,24.25,66.66666666666667,18C92.36111111111111,11.75,105.55555555555557,-22.708333333333332,133.33333333333334,-20C161.11111111111111,-17.291666666666668,172.22222222222223,32.041666666666664,200,31C227.77777777777777,29.958333333333332,238.8888888888889,-28.333333333333332,266.6666666666667,-25C294.44444444444446,-21.666666666666668,305.5555555555556,45.541666666666664,333.33333333333337,47C361.11111111111114,48.458333333333336,372.22222222222223,-17.375,400,-18C427.77777777777777,-18.625,438.8888888888889,40.875,466.6666666666667,44C494.44444444444446,47.125,505.5555555555556,-4.666666666666666,533.3333333333334,-3C561.1111111111111,-1.3333333333333335,572.2222222222222,54.083333333333336,600,52C627.7777777777778,49.916666666666664,638.8888888888889,-10.083333333333332,666.6666666666667,-13C694.4444444444446,-15.916666666666668,707.6388888888889,33.208333333333336,733.3333333333334,38C759.0277777777778,42.791666666666664,778.1944444444445,15.833333333333334,790,10" transform="matrix(1,0,0,1,0,385)"></path><path d="M10,10C21.805555555555557,11.666666666666666,40.97222222222223,24.25,66.66666666666667,18C92.36111111111111,11.75,105.55555555555557,-22.708333333333332,133.33333333333334,-20C161.11111111111111,-17.291666666666668,172.22222222222223,32.041666666666664,200,31C227.77777777777777,29.958333333333332,238.8888888888889,-28.333333333333332,266.6666666666667,-25C294.44444444444446,-21.666666666666668,305.5555555555556,45.541666666666664,333.33333333333337,47C361.11111111111114,48.458333333333336,372.22222222222223,-17.375,400,-18C427.77777777777777,-18.625,438.8888888888889,40.875,466.6666666666667,44C494.44444444444446,47.125,505.5555555555556,-4.666666666666666,533.3333333333334,-3C561.1111111111111,-1.3333333333333335,572.2222222222222,54.083333333333336,600,52C627.7777777777778,49.916666666666664,638.8888888888889,-10.083333333333332,666.6666666666667,-13C694.4444444444446,-15.916666666666668,707.6388888888889,33.208333333333336,733.3333333333334,38C759.0277777777778,42.791666666666664,778.1944444444445,15.833333333333334,790,10" transform="matrix(1,0,0,1,0,350)"></path><path d="M10,10C21.805555555555557,11.666666666666666,40.97222222222223,24.25,66.66666666666667,18C92.36111111111111,11.75,105.55555555555557,-22.708333333333332,133.33333333333334,-20C161.11111111111111,-17.291666666666668,172.22222222222223,32.041666666666664,200,31C227.77777777777777,29.958333333333332,238.8888888888889,-28.333333333333332,266.6666666666667,-25C294.44444444444446,-21.666666666666668,305.5555555555556,45.541666666666664,333.33333333333337,47C361.11111111111114,48.458333333333336,372.22222222222223,-17.375,400,-18C427.77777777777777,-18.625,438.8888888888889,40.875,466.6666666666667,44C494.44444444444446,47.125,505.5555555555556,-4.666666666666666,533.3333333333334,-3C561.1111111111111,-1.3333333333333335,572.2222222222222,54.083333333333336,600,52C627.7777777777778,49.916666666666664,638.8888888888889,-10.083333333333332,666.6666666666667,-13C694.4444444444446,-15.916666666666668,707.6388888888889,33.208333333333336,733.3333333333334,38C759.0277777777778,42.791666666666664,778.1944444444445,15.833333333333334,790,10" transform="matrix(1,0,0,1,0,315)"></path><path d="M10,10C21.805555555555557,11.666666666666666,40.97222222222223,24.25,66.66666666666667,18C92.36111111111111,11.75,105.55555555555557,-22.708333333333332,133.33333333333334,-20C161.11111111111111,-17.291666666666668,172.22222222222223,32.041666666666664,200,31C227.77777777777777,29.958333333333332,238.8888888888889,-28.333333333333332,266.6666666666667,-25C294.44444444444446,-21.666666666666668,305.5555555555556,45.541666666666664,333.33333333333337,47C361.11111111111114,48.458333333333336,372.22222222222223,-17.375,400,-18C427.77777777777777,-18.625,438.8888888888889,40.875,466.6666666666667,44C494.44444444444446,47.125,505.5555555555556,-4.666666666666666,533.3333333333334,-3C561.1111111111111,-1.3333333333333335,572.2222222222222,54.083333333333336,600,52C627.7777777777778,49.916666666666664,638.8888888888889,-10.083333333333332,666.6666666666667,-13C694.4444444444446,-15.916666666666668,707.6388888888889,33.208333333333336,733.3333333333334,38C759.0277777777778,42.791666666666664,778.1944444444445,15.833333333333334,790,10" transform="matrix(1,0,0,1,0,280)"></path><path d="M10,10C21.805555555555557,11.666666666666666,40.97222222222223,24.25,66.66666666666667,18C92.36111111111111,11.75,105.55555555555557,-22.708333333333332,133.33333333333334,-20C161.11111111111111,-17.291666666666668,172.22222222222223,32.041666666666664,200,31C227.77777777777777,29.958333333333332,238.8888888888889,-28.333333333333332,266.6666666666667,-25C294.44444444444446,-21.666666666666668,305.5555555555556,45.541666666666664,333.33333333333337,47C361.11111111111114,48.458333333333336,372.22222222222223,-17.375,400,-18C427.77777777777777,-18.625,438.8888888888889,40.875,466.6666666666667,44C494.44444444444446,47.125,505.5555555555556,-4.666666666666666,533.3333333333334,-3C561.1111111111111,-1.3333333333333335,572.2222222222222,54.083333333333336,600,52C627.7777777777778,49.916666666666664,638.8888888888889,-10.083333333333332,666.6666666666667,-13C694.4444444444446,-15.916666666666668,707.6388888888889,33.208333333333336,733.3333333333334,38C759.0277777777778,42.791666666666664,778.1944444444445,15.833333333333334,790,10" transform="matrix(1,0,0,1,0,245)"></path><path d="M10,10C21.805555555555557,11.666666666666666,40.97222222222223,24.25,66.66666666666667,18C92.36111111111111,11.75,105.55555555555557,-22.708333333333332,133.33333333333334,-20C161.11111111111111,-17.291666666666668,172.22222222222223,32.041666666666664,200,31C227.77777777777777,29.958333333333332,238.8888888888889,-28.333333333333332,266.6666666666667,-25C294.44444444444446,-21.666666666666668,305.5555555555556,45.541666666666664,333.33333333333337,47C361.11111111111114,48.458333333333336,372.22222222222223,-17.375,400,-18C427.77777777777777,-18.625,438.8888888888889,40.875,466.6666666666667,44C494.44444444444446,47.125,505.5555555555556,-4.666666666666666,533.3333333333334,-3C561.1111111111111,-1.3333333333333335,572.2222222222222,54.083333333333336,600,52C627.7777777777778,49.916666666666664,638.8888888888889,-10.083333333333332,666.6666666666667,-13C694.4444444444446,-15.916666666666668,707.6388888888889,33.208333333333336,733.3333333333334,38C759.0277777777778,42.791666666666664,778.1944444444445,15.833333333333334,790,10" transform="matrix(1,0,0,1,0,210)"></path><path d="M10,10C21.805555555555557,11.666666666666666,40.97222222222223,24.25,66.66666666666667,18C92.36111111111111,11.75,105.55555555555557,-22.708333333333332,133.33333333333334,-20C161.11111111111111,-17.291666666666668,172.22222222222223,32.041666666666664,200,31C227.77777777777777,29.958333333333332,238.8888888888889,-28.333333333333332,266.6666666666667,-25C294.44444444444446,-21.666666666666668,305.5555555555556,45.541666666666664,333.33333333333337,47C361.11111111111114,48.458333333333336,372.22222222222223,-17.375,400,-18C427.77777777777777,-18.625,438.8888888888889,40.875,466.6666666666667,44C494.44444444444446,47.125,505.5555555555556,-4.666666666666666,533.3333333333334,-3C561.1111111111111,-1.3333333333333335,572.2222222222222,54.083333333333336,600,52C627.7777777777778,49.916666666666664,638.8888888888889,-10.083333333333332,666.6666666666667,-13C694.4444444444446,-15.916666666666668,707.6388888888889,33.208333333333336,733.3333333333334,38C759.0277777777778,42.791666666666664,778.1944444444445,15.833333333333334,790,10" transform="matrix(1,0,0,1,0,175)"></path><path d="M10,10C21.805555555555557,11.666666666666666,40.97222222222223,24.25,66.66666666666667,18C92.36111111111111,11.75,105.55555555555557,-22.708333333333332,133.33333333333334,-20C161.11111111111111,-17.291666666666668,172.22222222222223,32.041666666666664,200,31C227.77777777777777,29.958333333333332,238.8888888888889,-28.333333333333332,266.6666666666667,-25C294.44444444444446,-21.666666666666668,305.5555555555556,45.541666666666664,333.33333333333337,47C361.11111111111114,48.458333333333336,372.22222222222223,-17.375,400,-18C427.77777777777777,-18.625,438.8888888888889,40.875,466.6666666666667,44C494.44444444444446,47.125,505.5555555555556,-4.666666666666666,533.3333333333334,-3C561.1111111111111,-1.3333333333333335,572.2222222222222,54.083333333333336,600,52C627.7777777777778,49.916666666666664,638.8888888888889,-10.083333333333332,666.6666666666667,-13C694.4444444444446,-15.916666666666668,707.6388888888889,33.208333333333336,733.3333333333334,38C759.0277777777778,42.791666666666664,778.1944444444445,15.833333333333334,790,10" transform="matrix(1,0,0,1,0,140)"></path><path d="M10,10C21.805555555555557,11.666666666666666,40.97222222222223,24.25,66.66666666666667,18C92.36111111111111,11.75,105.55555555555557,-22.708333333333332,133.33333333333334,-20C161.11111111111111,-17.291666666666668,172.22222222222223,32.041666666666664,200,31C227.77777777777777,29.958333333333332,238.8888888888889,-28.333333333333332,266.6666666666667,-25C294.44444444444446,-21.666666666666668,305.5555555555556,45.541666666666664,333.33333333333337,47C361.11111111111114,48.458333333333336,372.22222222222223,-17.375,400,-18C427.77777777777777,-18.625,438.8888888888889,40.875,466.6666666666667,44C494.44444444444446,47.125,505.5555555555556,-4.666666666666666,533.3333333333334,-3C561.1111111111111,-1.3333333333333335,572.2222222222222,54.083333333333336,600,52C627.7777777777778,49.916666666666664,638.8888888888889,-10.083333333333332,666.6666666666667,-13C694.4444444444446,-15.916666666666668,707.6388888888889,33.208333333333336,733.3333333333334,38C759.0277777777778,42.791666666666664,778.1944444444445,15.833333333333334,790,10" transform="matrix(1,0,0,1,0,105)"></path><path d="M10,10C21.805555555555557,11.666666666666666,40.97222222222223,24.25,66.66666666666667,18C92.36111111111111,11.75,105.55555555555557,-22.708333333333332,133.33333333333334,-20C161.11111111111111,-17.291666666666668,172.22222222222223,32.041666666666664,200,31C227.77777777777777,29.958333333333332,238.8888888888889,-28.333333333333332,266.6666666666667,-25C294.44444444444446,-21.666666666666668,305.5555555555556,45.541666666666664,333.33333333333337,47C361.11111111111114,48.458333333333336,372.22222222222223,-17.375,400,-18C427.77777777777777,-18.625,438.8888888888889,40.875,466.6666666666667,44C494.44444444444446,47.125,505.5555555555556,-4.666666666666666,533.3333333333334,-3C561.1111111111111,-1.3333333333333335,572.2222222222222,54.083333333333336,600,52C627.7777777777778,49.916666666666664,638.8888888888889,-10.083333333333332,666.6666666666667,-13C694.4444444444446,-15.916666666666668,707.6388888888889,33.208333333333336,733.3333333333334,38C759.0277777777778,42.791666666666664,778.1944444444445,15.833333333333334,790,10" transform="matrix(1,0,0,1,0,70)"></path><path d="M10,10C21.805555555555557,11.666666666666666,40.97222222222223,24.25,66.66666666666667,18C92.36111111111111,11.75,105.55555555555557,-22.708333333333332,133.33333333333334,-20C161.11111111111111,-17.291666666666668,172.22222222222223,32.041666666666664,200,31C227.77777777777777,29.958333333333332,238.8888888888889,-28.333333333333332,266.6666666666667,-25C294.44444444444446,-21.666666666666668,305.5555555555556,45.541666666666664,333.33333333333337,47C361.11111111111114,48.458333333333336,372.22222222222223,-17.375,400,-18C427.77777777777777,-18.625,438.8888888888889,40.875,466.6666666666667,44C494.44444444444446,47.125,505.5555555555556,-4.666666666666666,533.3333333333334,-3C561.1111111111111,-1.3333333333333335,572.2222222222222,54.083333333333336,600,52C627.7777777777778,49.916666666666664,638.8888888888889,-10.083333333333332,666.6666666666667,-13C694.4444444444446,-15.916666666666668,707.6388888888889,33.208333333333336,733.3333333333334,38C759.0277777777778,42.791666666666664,778.1944444444445,15.833333333333334,790,10" transform="matrix(1,0,0,1,0,35)"></path></g></svg>